<?xml version="1.0" standalone="no"?>
 <!DOCTYPE svg PUBLIC "-//W3C//DTD SVG 1.1//EN" 
 "http://www.w3.org/Graphics/SVG/1.1/DTD/svg11.dtd"> 
<svg
  xmlns:svg="http://www.w3.org/2000/svg"
  xmlns="http://www.w3.org/2000/svg"
  xmlns:xlink="http://www.w3.org/1999/xlink"
  version="1.1"
  width="297.0022mm" height="210.0072mm" viewBox="0.0000 0.0000 297.0022 210.0072">
<title>SVG Image created as miniwhip_power-B_Cu.svg date 2024/01/01 11:48:26 </title>
  <desc>Image generated by PCBNEW </desc>
<g style="fill:#000000; fill-opacity:1.0000;stroke:#000000; stroke-opacity:1.0000;
stroke-linecap:round; stroke-linejoin:round;"
 transform="translate(0 0) scale(1 1)">
</g>
<g style="fill:#000000; fill-opacity:0.0; 
stroke:#000000; stroke-width:0.0000; stroke-opacity:1; 
stroke-linecap:round; stroke-linejoin:round;">
</g>
<g style="fill:#000000; fill-opacity:0.0; 
stroke:#000000; stroke-width:0.3000; stroke-opacity:1; 
stroke-linecap:round; stroke-linejoin:round;">
<text x="149.8600" y="109.2200"
transform="scale(-1 1) translate(-299.720000 0)"
textLength="4.8857" font-size="2.0000" lengthAdjust="spacingAndGlyphs"
text-anchor="start" opacity="0">OUT</text>
<g class="stroked-text"><desc>OUT</desc>
<path d="M149.0198 107.5208
L148.7341 107.5208
" />
<path d="M148.7341 107.5208
L148.5912 107.5923
" />
<path d="M148.5912 107.5923
L148.4483 107.7351
" />
<path d="M148.4483 107.7351
L148.3769 108.0208
" />
<path d="M148.3769 108.0208
L148.3769 108.5208
" />
<path d="M148.3769 108.5208
L148.4483 108.8065
" />
<path d="M148.4483 108.8065
L148.5912 108.9494
" />
<path d="M148.5912 108.9494
L148.7341 109.0208
" />
<path d="M148.7341 109.0208
L149.0198 109.0208
" />
<path d="M149.0198 109.0208
L149.1626 108.9494
" />
<path d="M149.1626 108.9494
L149.3055 108.8065
" />
<path d="M149.3055 108.8065
L149.3769 108.5208
" />
<path d="M149.3769 108.5208
L149.3769 108.0208
" />
<path d="M149.3769 108.0208
L149.3055 107.7351
" />
<path d="M149.3055 107.7351
L149.1626 107.5923
" />
<path d="M149.1626 107.5923
L149.0198 107.5208
" />
<path d="M147.7341 107.5208
L147.7341 108.7351
" />
<path d="M147.7341 108.7351
L147.6626 108.8780
" />
<path d="M147.6626 108.8780
L147.5912 108.9494
" />
<path d="M147.5912 108.9494
L147.4483 109.0208
" />
<path d="M147.4483 109.0208
L147.1626 109.0208
" />
<path d="M147.1626 109.0208
L147.0198 108.9494
" />
<path d="M147.0198 108.9494
L146.9483 108.8780
" />
<path d="M146.9483 108.8780
L146.8769 108.7351
" />
<path d="M146.8769 108.7351
L146.8769 107.5208
" />
<path d="M146.3769 107.5208
L145.5198 107.5208
" />
<path d="M145.9483 109.0208
L145.9483 107.5208
" />
</g><text x="176.5300" y="93.9800"
transform="scale(-1 1) translate(-353.060000 0)"
textLength="2.8857" font-size="2.0000" lengthAdjust="spacingAndGlyphs"
text-anchor="start" opacity="0">IN</text>
<g class="stroked-text"><desc>IN</desc>
<path d="M175.9755 93.7808
L175.9755 92.2808
" />
<path d="M175.2612 93.7808
L175.2612 92.2808
" />
<path d="M175.2612 92.2808
L174.4041 93.7808
" />
<path d="M174.4041 93.7808
L174.4041 92.2808
" />
</g><text x="180.3400" y="110.4900"
transform="scale(-1 1) translate(-360.680000 0)"
textLength="11.8143" font-size="2.0000" lengthAdjust="spacingAndGlyphs"
text-anchor="start" opacity="0">MW psupp</text>
<g class="stroked-text"><desc>MW psupp</desc>
<path d="M179.7855 110.2908
L179.7855 108.7908
" />
<path d="M179.7855 108.7908
L179.2855 109.8623
" />
<path d="M179.2855 109.8623
L178.7855 108.7908
" />
<path d="M178.7855 108.7908
L178.7855 110.2908
" />
<path d="M178.2141 108.7908
L177.8569 110.2908
" />
<path d="M177.8569 110.2908
L177.5712 109.2194
" />
<path d="M177.5712 109.2194
L177.2855 110.2908
" />
<path d="M177.2855 110.2908
L176.9283 108.7908
" />
<path d="M175.2141 109.2908
L175.2141 110.7908
" />
<path d="M175.2141 109.3623
L175.0712 109.2908
" />
<path d="M175.0712 109.2908
L174.7855 109.2908
" />
<path d="M174.7855 109.2908
L174.6426 109.3623
" />
<path d="M174.6426 109.3623
L174.5712 109.4337
" />
<path d="M174.5712 109.4337
L174.4998 109.5765
" />
<path d="M174.4998 109.5765
L174.4998 110.0051
" />
<path d="M174.4998 110.0051
L174.5712 110.1480
" />
<path d="M174.5712 110.1480
L174.6426 110.2194
" />
<path d="M174.6426 110.2194
L174.7855 110.2908
" />
<path d="M174.7855 110.2908
L175.0712 110.2908
" />
<path d="M175.0712 110.2908
L175.2141 110.2194
" />
<path d="M173.9283 110.2194
L173.7855 110.2908
" />
<path d="M173.7855 110.2908
L173.4998 110.2908
" />
<path d="M173.4998 110.2908
L173.3569 110.2194
" />
<path d="M173.3569 110.2194
L173.2855 110.0765
" />
<path d="M173.2855 110.0765
L173.2855 110.0051
" />
<path d="M173.2855 110.0051
L173.3569 109.8623
" />
<path d="M173.3569 109.8623
L173.4998 109.7908
" />
<path d="M173.4998 109.7908
L173.7141 109.7908
" />
<path d="M173.7141 109.7908
L173.8569 109.7194
" />
<path d="M173.8569 109.7194
L173.9283 109.5765
" />
<path d="M173.9283 109.5765
L173.9283 109.5051
" />
<path d="M173.9283 109.5051
L173.8569 109.3623
" />
<path d="M173.8569 109.3623
L173.7141 109.2908
" />
<path d="M173.7141 109.2908
L173.4998 109.2908
" />
<path d="M173.4998 109.2908
L173.3569 109.3623
" />
<path d="M171.9998 109.2908
L171.9998 110.2908
" />
<path d="M172.6426 109.2908
L172.6426 110.0765
" />
<path d="M172.6426 110.0765
L172.5712 110.2194
" />
<path d="M172.5712 110.2194
L172.4283 110.2908
" />
<path d="M172.4283 110.2908
L172.2141 110.2908
" />
<path d="M172.2141 110.2908
L172.0712 110.2194
" />
<path d="M172.0712 110.2194
L171.9998 110.1480
" />
<path d="M171.2855 109.2908
L171.2855 110.7908
" />
<path d="M171.2855 109.3623
L171.1426 109.2908
" />
<path d="M171.1426 109.2908
L170.8569 109.2908
" />
<path d="M170.8569 109.2908
L170.7141 109.3623
" />
<path d="M170.7141 109.3623
L170.6426 109.4337
" />
<path d="M170.6426 109.4337
L170.5712 109.5765
" />
<path d="M170.5712 109.5765
L170.5712 110.0051
" />
<path d="M170.5712 110.0051
L170.6426 110.1480
" />
<path d="M170.6426 110.1480
L170.7141 110.2194
" />
<path d="M170.7141 110.2194
L170.8569 110.2908
" />
<path d="M170.8569 110.2908
L171.1426 110.2908
" />
<path d="M171.1426 110.2908
L171.2855 110.2194
" />
<path d="M169.9283 109.2908
L169.9283 110.7908
" />
<path d="M169.9283 109.3623
L169.7855 109.2908
" />
<path d="M169.7855 109.2908
L169.4998 109.2908
" />
<path d="M169.4998 109.2908
L169.3569 109.3623
" />
<path d="M169.3569 109.3623
L169.2855 109.4337
" />
<path d="M169.2855 109.4337
L169.2141 109.5765
" />
<path d="M169.2141 109.5765
L169.2141 110.0051
" />
<path d="M169.2141 110.0051
L169.2855 110.1480
" />
<path d="M169.2855 110.1480
L169.3569 110.2194
" />
<path d="M169.3569 110.2194
L169.4998 110.2908
" />
<path d="M169.4998 110.2908
L169.7855 110.2908
" />
<path d="M169.7855 110.2908
L169.9283 110.2194
" />
</g><g >
</g>
<g style="fill:#000000; fill-opacity:1.0000; 
stroke:#000000; stroke-width:0.0000; stroke-opacity:1; 
stroke-linecap:round; stroke-linejoin:round;">
<circle cx="179.0700" cy="104.1400" r="2.2000" /> 
</g>
<g style="fill:#000000; fill-opacity:1.0000; 
stroke:#000000; stroke-width:0.0212; stroke-opacity:1; 
stroke-linecap:round; stroke-linejoin:round;">
</g>
<g >
</g>
<g style="fill:#000000; fill-opacity:1.0000; 
stroke:#000000; stroke-width:0.0212; stroke-opacity:1; 
stroke-linecap:round; stroke-linejoin:round;">
</g>
<g style="fill:#000000; fill-opacity:1.0000; 
stroke:#000000; stroke-width:0.0000; stroke-opacity:1; 
stroke-linecap:round; stroke-linejoin:round;">
<path style="fill:#000000; fill-opacity:1.0000; 
stroke:#000000; stroke-width:0.0000; stroke-opacity:1; 
stroke-linecap:round; stroke-linejoin:round;fill-rule:evenodd;"
d="M 172.4500,100.6000
172.4500,102.6000
170.4500,102.6000
170.4500,100.6000
Z" /> 
<circle cx="171.4500" cy="99.0600" r="1.0000" /> 
</g>
<g >
</g>
<g style="fill:#000000; fill-opacity:1.0000; 
stroke:#000000; stroke-width:0.0000; stroke-opacity:1; 
stroke-linecap:round; stroke-linejoin:round;">
<circle cx="166.3700" cy="106.6800" r="1.0000" /> 
</g>
<g style="fill:#000000; fill-opacity:1.0000; 
stroke:#000000; stroke-width:0.0212; stroke-opacity:1; 
stroke-linecap:round; stroke-linejoin:round;">
</g>
<g style="fill:#000000; fill-opacity:1.0000; 
stroke:#000000; stroke-width:0.0000; stroke-opacity:1; 
stroke-linecap:round; stroke-linejoin:round;">
<circle cx="158.7500" cy="106.6800" r="1.0000" /> 
</g>
<g >
</g>
<g style="fill:#000000; fill-opacity:1.0000; 
stroke:#000000; stroke-width:0.0000; stroke-opacity:1; 
stroke-linecap:round; stroke-linejoin:round;">
<circle cx="151.2100" cy="109.2200" r="1.0000" /> 
</g>
<g style="fill:#000000; fill-opacity:1.0000; 
stroke:#000000; stroke-width:0.0212; stroke-opacity:1; 
stroke-linecap:round; stroke-linejoin:round;">
</g>
<g style="fill:#000000; fill-opacity:1.0000; 
stroke:#000000; stroke-width:0.0000; stroke-opacity:1; 
stroke-linecap:round; stroke-linejoin:round;">
<circle cx="156.2100" cy="109.2200" r="1.0000" /> 
</g>
<g style="fill:#000000; fill-opacity:1.0000; 
stroke:#000000; stroke-width:0.0212; stroke-opacity:1; 
stroke-linecap:round; stroke-linejoin:round;">
</g>
<g >
</g>
<g style="fill:#000000; fill-opacity:1.0000; 
stroke:#000000; stroke-width:0.0212; stroke-opacity:1; 
stroke-linecap:round; stroke-linejoin:round;">
</g>
<g style="fill:#000000; fill-opacity:1.0000; 
stroke:#000000; stroke-width:0.0000; stroke-opacity:1; 
stroke-linecap:round; stroke-linejoin:round;">
<circle cx="149.8600" cy="93.9800" r="1.0000" /> 
</g>
<g style="fill:#000000; fill-opacity:1.0000; 
stroke:#000000; stroke-width:0.0212; stroke-opacity:1; 
stroke-linecap:round; stroke-linejoin:round;">
</g>
<g style="fill:#000000; fill-opacity:1.0000; 
stroke:#000000; stroke-width:0.0000; stroke-opacity:1; 
stroke-linecap:round; stroke-linejoin:round;">
<circle cx="157.4800" cy="93.9800" r="1.0000" /> 
</g>
<g >
</g>
<g style="fill:#000000; fill-opacity:1.0000; 
stroke:#000000; stroke-width:0.0000; stroke-opacity:1; 
stroke-linecap:round; stroke-linejoin:round;">
<circle cx="179.0700" cy="95.2500" r="2.2000" /> 
</g>
<g style="fill:#000000; fill-opacity:1.0000; 
stroke:#000000; stroke-width:0.0212; stroke-opacity:1; 
stroke-linecap:round; stroke-linejoin:round;">
</g>
<g >
</g>
<g style="fill:#000000; fill-opacity:1.0000; 
stroke:#000000; stroke-width:0.0212; stroke-opacity:1; 
stroke-linecap:round; stroke-linejoin:round;">
</g>
<g style="fill:#000000; fill-opacity:1.0000; 
stroke:#000000; stroke-width:0.0000; stroke-opacity:1; 
stroke-linecap:round; stroke-linejoin:round;">
<circle cx="152.4000" cy="97.8300" r="1.0000" /> 
</g>
<g style="fill:#000000; fill-opacity:1.0000; 
stroke:#000000; stroke-width:0.0212; stroke-opacity:1; 
stroke-linecap:round; stroke-linejoin:round;">
</g>
<g style="fill:#000000; fill-opacity:1.0000; 
stroke:#000000; stroke-width:0.0000; stroke-opacity:1; 
stroke-linecap:round; stroke-linejoin:round;">
<circle cx="152.4000" cy="102.8300" r="1.0000" /> 
</g>
<g style="fill:#000000; fill-opacity:1.0000; 
stroke:#000000; stroke-width:0.0212; stroke-opacity:1; 
stroke-linecap:round; stroke-linejoin:round;">
</g>
<g >
</g>
<g style="fill:#000000; fill-opacity:1.0000; 
stroke:#000000; stroke-width:0.0212; stroke-opacity:1; 
stroke-linecap:round; stroke-linejoin:round;">
</g>
<g style="fill:#000000; fill-opacity:1.0000; 
stroke:#000000; stroke-width:0.0000; stroke-opacity:1; 
stroke-linecap:round; stroke-linejoin:round;">
<path style="fill:#000000; fill-opacity:1.0000; 
stroke:#000000; stroke-width:0.0000; stroke-opacity:1; 
stroke-linecap:round; stroke-linejoin:round;fill-rule:evenodd;"
d="M 162.2900,105.1400
160.2900,105.1400
160.2900,103.1400
162.2900,103.1400
Z" /> 
<circle cx="161.2900" cy="93.9800" r="1.0000" /> 
</g>
<g >
</g>
<g style="fill:#000000; fill-opacity:1.0000; 
stroke:#000000; stroke-width:0.0000; stroke-opacity:1; 
stroke-linecap:round; stroke-linejoin:round;">
<circle cx="144.7800" cy="104.1400" r="2.2000" /> 
</g>
<g style="fill:#000000; fill-opacity:1.0000; 
stroke:#000000; stroke-width:0.0212; stroke-opacity:1; 
stroke-linecap:round; stroke-linejoin:round;">
</g>
<g >
</g>
<g style="fill:#000000; fill-opacity:1.0000; 
stroke:#000000; stroke-width:0.0212; stroke-opacity:1; 
stroke-linecap:round; stroke-linejoin:round;">
</g>
<g style="fill:#000000; fill-opacity:1.0000; 
stroke:#000000; stroke-width:0.0000; stroke-opacity:1; 
stroke-linecap:round; stroke-linejoin:round;">
<circle cx="144.7800" cy="95.2500" r="2.2000" /> 
</g>
<g style="fill:#000000; fill-opacity:1.0000; 
stroke:#000000; stroke-width:0.0212; stroke-opacity:1; 
stroke-linecap:round; stroke-linejoin:round;">
</g>
<g >
</g>
<g style="fill:#000000; fill-opacity:1.0000; 
stroke:#000000; stroke-width:0.0212; stroke-opacity:1; 
stroke-linecap:round; stroke-linejoin:round;">
</g>
<g style="fill:#000000; fill-opacity:1.0000; 
stroke:#000000; stroke-width:0.0000; stroke-opacity:1; 
stroke-linecap:round; stroke-linejoin:round;">
<circle cx="167.6400" cy="102.8300" r="1.0000" /> 
</g>
<g style="fill:#000000; fill-opacity:1.0000; 
stroke:#000000; stroke-width:0.0212; stroke-opacity:1; 
stroke-linecap:round; stroke-linejoin:round;">
</g>
<g style="fill:#000000; fill-opacity:1.0000; 
stroke:#000000; stroke-width:0.0000; stroke-opacity:1; 
stroke-linecap:round; stroke-linejoin:round;">
<circle cx="167.6400" cy="97.8300" r="1.0000" /> 
</g>
<g style="fill:#000000; fill-opacity:1.0000; 
stroke:#000000; stroke-width:0.0212; stroke-opacity:1; 
stroke-linecap:round; stroke-linejoin:round;">
</g>
<g >
</g>
<g >
</g>
<g style="fill:#000000; fill-opacity:1.0000; 
stroke:#000000; stroke-width:0.0212; stroke-opacity:1; 
stroke-linecap:round; stroke-linejoin:round;">
</g>
<g style="fill:#000000; fill-opacity:1.0000; 
stroke:#000000; stroke-width:1.5240; stroke-opacity:1; 
stroke-linecap:round; stroke-linejoin:round;">
</g>
<g style="fill:#000000; fill-opacity:0.0; 
stroke:#000000; stroke-width:1.5240; stroke-opacity:1; 
stroke-linecap:round; stroke-linejoin:round;">
<path d="M149.8600 105.4100
L151.2100 106.7600
" />
<path d="M151.2100 106.7600
L151.2100 109.2200
" />
</g>
<g style="fill:#000000; fill-opacity:0.0; 
stroke:#000000; stroke-width:1.2700; stroke-opacity:1; 
stroke-linecap:round; stroke-linejoin:round;">
<path d="M156.2100 109.2200
L163.8300 109.2200
" />
<path d="M163.8300 109.2200
L166.3700 106.6800
" />
</g>
<g style="fill:#000000; fill-opacity:0.0; 
stroke:#000000; stroke-width:1.5240; stroke-opacity:1; 
stroke-linecap:round; stroke-linejoin:round;">
<path d="M171.4500 106.6800
L166.3700 106.6800
" />
<path d="M154.9800 97.8300
L161.2900 104.1400
" />
<path d="M153.6300 97.8300
L157.4800 93.9800
" />
<path d="M152.4000 97.8300
L153.6300 97.8300
" />
<path d="M152.4000 97.8300
L154.9800 97.8300
" />
<path d="M144.7800 95.2500
L148.5900 95.2500
" />
<path d="M148.5900 95.2500
L149.8600 93.9800
" />
<path d="M149.8600 100.3300
L149.8600 105.4100
" />
<path d="M144.7800 95.2500
L149.8600 100.3300
" />
<path d="M171.4500 106.6800
L175.2600 102.8700
" />
<path d="M176.5300 97.7900
L179.0700 95.2500
" />
<path d="M175.2600 97.7900
L176.5300 97.7900
" />
<path d="M175.2600 102.8700
L175.2600 97.7900
" />
<path d="M167.6400 97.8300
L165.1400 97.8300
" />
<path d="M168.8700 99.0600
L167.6400 97.8300
" />
<path d="M165.1400 97.8300
L161.2900 93.9800
" />
<path d="M171.4500 99.0600
L168.8700 99.0600
" />
</g>
<g >
</g>
<g style="fill:#000000; fill-opacity:0.0; 
stroke:#000000; stroke-width:1.5240; stroke-opacity:1; 
stroke-linecap:round; stroke-linejoin:round;">
<g >
</g>
<g style="fill:#000000; fill-opacity:1.0000; 
stroke:#000000; stroke-width:0.0000; stroke-opacity:1; 
stroke-linecap:round; stroke-linejoin:round;">
<path style="fill:#000000; fill-opacity:1.0000; 
stroke:#000000; stroke-width:0.0000; stroke-opacity:1; 
stroke-linecap:round; stroke-linejoin:round;fill-rule:evenodd;"
d="M 182.8225,90.1902
182.8683,90.2430
182.8795,90.2945
182.8795,111.6355
182.8598,111.7025
182.8070,111.7483
182.7555,111.7595
141.0945,111.7595
141.0275,111.7398
140.9817,111.6870
140.9705,111.6355
140.9705,95.2500
142.0746,95.2500
142.0943,95.5761
142.1532,95.8975
142.2504,96.2093
142.2504,96.2094
142.2504,96.2094
142.3845,96.5073
142.5107,96.7161
142.5535,96.7869
142.7550,97.0440
142.9860,97.2750
143.2431,97.4765
143.2431,97.4765
143.2431,97.4765
143.5227,97.6455
143.8206,97.7796
143.8207,97.7796
143.8207,97.7796
144.1138,97.8710
144.1325,97.8768
144.4539,97.9357
144.7800,97.9554
145.1061,97.9357
145.4275,97.8768
145.5037,97.8530
145.5736,97.8519
145.6283,97.8838
148.5612,100.8166
148.5947,100.8779
148.5975,100.9043
148.5975,105.3356
148.5971,105.3426
148.5948,105.3634
148.5927,105.3816
148.5927,105.3816
148.5974,105.4504
148.5975,105.4546
148.5975,105.4667
148.6013,105.5091
148.6080,105.6083
148.6091,105.6127
148.6124,105.6318
148.6128,105.6363
148.6392,105.7322
148.6635,105.8287
148.6635,105.8287
148.6654,105.8328
148.6720,105.8511
148.6732,105.8554
148.6732,105.8554
148.6732,105.8554
148.6778,105.8650
148.7164,105.9450
148.7575,106.0356
148.7575,106.0356
148.7601,106.0393
148.7699,106.0561
148.7718,106.0601
148.7718,106.0602
148.8303,106.1406
148.8869,106.2224
148.8901,106.2256
148.9027,106.2404
148.9054,106.2440
148.9054,106.2440
148.9054,106.2440
148.9773,106.3127
149.3179,106.6534
149.3514,106.7147
149.3464,106.7844
149.3045,106.8403
149.2391,106.8647
149.2302,106.8650
145.8816,106.8650
145.8146,106.8454
145.7688,106.7925
145.7589,106.7234
145.7879,106.6598
145.8307,106.6280
146.0370,106.5351
146.0370,106.5351
146.3166,106.3661
146.3166,106.3661
146.5050,106.2185
146.5050,106.2185
145.3633,105.0769
145.3774,105.0696
145.5425,104.9397
145.6801,104.7810
145.7147,104.7211
146.8585,105.8650
146.8585,105.8650
147.0061,105.6766
147.0061,105.6766
147.1751,105.3970
147.1751,105.3970
147.3092,105.0992
147.3092,105.0992
147.4063,104.7873
147.4652,104.4660
147.4849,104.1400
147.4652,103.8140
147.4063,103.4927
147.3092,103.1808
147.3092,103.1808
147.1751,102.8830
147.1751,102.8830
147.0061,102.6034
147.0061,102.6034
146.8585,102.4150
145.7158,103.5578
145.6151,103.4164
145.4631,103.2714
145.3608,103.2057
146.5050,102.0615
146.5050,102.0615
146.3166,101.9139
146.0370,101.7449
146.0370,101.7449
145.7392,101.6108
145.7392,101.6108
145.4273,101.5137
145.1060,101.4548
144.7800,101.4351
144.4540,101.4548
144.1327,101.5137
143.8208,101.6108
143.8208,101.6108
143.5230,101.7449
143.5230,101.7449
143.2434,101.9139
143.0550,102.0615
143.0550,102.0615
144.1967,103.2031
144.1826,103.2104
144.0175,103.3403
143.8799,103.4990
143.8453,103.5589
142.7015,102.4150
142.7015,102.4150
142.5539,102.6034
142.3849,102.8830
142.3849,102.8830
142.2508,103.1808
142.2508,103.1808
142.1537,103.4927
142.0948,103.8140
142.0751,104.1400
142.0948,104.4660
142.1537,104.7873
142.2508,105.0992
142.2508,105.0992
142.3849,105.3970
142.3849,105.3970
142.5539,105.6766
142.7015,105.8650
143.8442,104.7222
143.9449,104.8636
144.0969,105.0086
144.1992,105.0743
143.0550,106.2185
143.0550,106.2185
143.2434,106.3661
143.2434,106.3661
143.5230,106.5351
143.5230,106.5351
143.8208,106.6692
143.8208,106.6692
144.1327,106.7663
144.4540,106.8252
144.7475,106.8430
144.8132,106.8667
144.8557,106.9221
144.8640,106.9667
144.8640,109.6766
149.6908,109.6766
149.7578,109.6963
149.8036,109.7491
149.8043,109.7508
149.8858,109.9366
150.0218,110.1448
150.0218,110.1448
150.1903,110.3277
150.3865,110.4805
150.6052,110.5988
150.8404,110.6796
151.0857,110.7205
151.3343,110.7205
151.5796,110.6796
151.8148,110.5988
152.0335,110.4805
152.2297,110.3277
152.3982,110.1448
152.5342,109.9366
152.6341,109.7089
152.6951,109.4678
152.7156,109.2200
152.6951,108.9722
152.6341,108.7311
152.5342,108.5034
152.4927,108.4399
152.4725,108.3730
152.4725,108.3721
152.4725,106.8344
152.4729,106.8274
152.4773,106.7884
152.4770,106.7844
152.4726,106.7196
152.4725,106.7154
152.4725,106.7033
152.4725,106.7033
152.4687,106.6609
152.4620,106.5617
152.4609,106.5573
152.4576,106.5381
152.4575,106.5365
152.4572,106.5337
152.4308,106.4378
152.4065,106.3413
152.4046,106.3372
152.3980,106.3189
152.3968,106.3146
152.3968,106.3146
152.3536,106.2250
152.3125,106.1344
152.3125,106.1344
152.3099,106.1307
152.3001,106.1139
152.2982,106.1098
152.2397,106.0294
152.1831,105.9476
152.1799,105.9444
152.1672,105.9296
152.1646,105.9260
152.1646,105.9260
152.0927,105.8573
151.1588,104.9234
151.1253,104.8621
151.1225,104.8357
151.1225,103.8053
151.1422,103.7383
151.1588,103.7176
151.9169,102.9595
151.9405,103.0398
152.0182,103.1608
152.1269,103.2550
152.2577,103.3147
152.2675,103.3161
151.5299,104.0536
151.5768,104.0901
151.5768,104.0901
151.7954,104.2084
151.7954,104.2084
152.0305,104.2891
152.2757,104.3300
152.5243,104.3300
152.7695,104.2891
153.0046,104.2084
153.0046,104.2084
153.2232,104.0901
153.2232,104.0901
153.2701,104.0536
152.5325,103.3161
152.5423,103.3147
152.6731,103.2550
152.7818,103.1608
152.8595,103.0398
152.8831,102.9595
153.6234,103.6999
153.7237,103.5464
153.8236,103.3187
153.8846,103.0777
153.8846,103.0777
153.9051,102.8300
153.9051,102.8300
153.8846,102.5823
153.8846,102.5823
153.8236,102.3413
153.7237,102.1136
153.6234,101.9601
152.8831,102.7005
152.8595,102.6202
152.7818,102.4992
152.6731,102.4050
152.5423,102.3453
152.5325,102.3439
153.2701,101.6064
153.2701,101.6064
153.2232,101.5699
153.0046,101.4516
153.0046,101.4516
152.7695,101.3709
152.5243,101.3300
152.2757,101.3300
152.0305,101.3709
151.7954,101.4516
151.7954,101.4516
151.5768,101.5699
151.5299,101.6064
151.5299,101.6064
152.2675,102.3439
152.2577,102.3453
152.1269,102.4050
152.0182,102.4992
151.9405,102.6202
151.9169,102.7005
151.1588,101.9424
151.1253,101.8810
151.1225,101.8547
151.1225,100.4044
151.1229,100.3974
151.1273,100.3584
151.1273,100.3584
151.1226,100.2896
151.1225,100.2854
151.1225,100.2733
151.1225,100.2733
151.1187,100.2309
151.1120,100.1317
151.1109,100.1273
151.1076,100.1081
151.1075,100.1065
151.1072,100.1037
151.0808,100.0078
151.0565,99.9113
151.0546,99.9072
151.0480,99.8889
151.0468,99.8846
151.0036,99.7950
150.9625,99.7044
150.9599,99.7007
150.9501,99.6839
150.9482,99.6798
150.8897,99.5994
150.8331,99.5176
150.8299,99.5144
150.8172,99.4996
150.8146,99.4960
150.8146,99.4960
150.7427,99.4273
149.1454,97.8300
150.8944,97.8300
150.9149,98.0778
150.9149,98.0778
150.9759,98.3189
151.0758,98.5466
151.2118,98.7548
151.2195,98.7631
151.3803,98.9377
151.5765,99.0905
151.6473,99.1288
151.7952,99.2088
151.7952,99.2088
152.0304,99.2896
152.2757,99.3305
152.5243,99.3305
152.7696,99.2896
153.0048,99.2088
153.1185,99.1473
153.1921,99.1074
153.2512,99.0925
153.5556,99.0925
153.5626,99.0929
153.6016,99.0973
153.6016,99.0973
153.6016,99.0973
153.6704,99.0926
153.6746,99.0925
154.4057,99.0925
154.4727,99.1122
154.4934,99.1288
159.7532,104.3886
159.7867,104.4499
159.7895,104.4763
159.7895,105.1879
159.7895,105.1879
159.7959,105.2475
159.8248,105.3248
159.8297,105.3945
159.7962,105.4558
159.7349,105.4893
159.6652,105.4843
159.6324,105.4660
159.5732,105.4199
159.5732,105.4199
159.3546,105.3016
159.3546,105.3016
159.1195,105.2209
159.0000,105.2010
159.0000,106.2445
158.8923,106.1953
158.7858,106.1800
158.7142,106.1800
158.6077,106.1953
158.5000,106.2445
158.5000,105.2010
158.5000,105.2010
158.3805,105.2209
158.1454,105.3016
158.1454,105.3016
157.9268,105.4199
157.9268,105.4199
157.7306,105.5726
157.7306,105.5726
157.5622,105.7555
157.4263,105.9636
157.3264,106.1913
157.2660,106.4300
158.3163,106.4300
158.2905,106.4702
158.2500,106.6081
158.2500,106.7519
158.2905,106.8898
158.3163,106.9300
157.2660,106.9300
157.3264,107.1687
157.4263,107.3964
157.5622,107.6045
157.7306,107.7874
157.7306,107.7874
157.8273,107.8626
157.8681,107.9194
157.8718,107.9891
157.8372,108.0498
157.7752,108.0821
157.7512,108.0845
157.2366,108.0845
157.1696,108.0648
157.1605,108.0584
157.0335,107.9595
157.0335,107.9595
156.8148,107.8412
156.8148,107.8412
156.5796,107.7604
156.3343,107.7195
156.0857,107.7195
155.8404,107.7604
155.6052,107.8412
155.6052,107.8412
155.3865,107.9595
155.1903,108.1123
155.1903,108.1123
155.1841,108.1190
155.0218,108.2952
154.8858,108.5034
154.7859,108.7311
154.7249,108.9722
154.7249,108.9722
154.7044,109.2200
154.7044,109.2200
154.7249,109.4678
154.7249,109.4678
154.7859,109.7089
154.8858,109.9366
155.0218,110.1448
155.0218,110.1448
155.1903,110.3277
155.3865,110.4805
155.6052,110.5988
155.8404,110.6796
156.0857,110.7205
156.3343,110.7205
156.5796,110.6796
156.8148,110.5988
157.0335,110.4805
157.1112,110.4200
157.1605,110.3816
157.2255,110.3560
157.2366,110.3555
163.7248,110.3555
163.7454,110.3572
163.7486,110.3578
163.8415,110.3555
163.8435,110.3555
163.8841,110.3555
163.8841,110.3555
163.8841,110.3555
163.8841,110.3555
163.8848,110.3554
163.8954,110.3544
163.8998,110.3542
163.9654,110.3526
163.9911,110.3470
164.0017,110.3447
164.0089,110.3436
164.0093,110.3435
164.0459,110.3401
164.1089,110.3215
164.1131,110.3205
164.1773,110.3065
164.2114,110.2919
164.2183,110.2894
164.2539,110.2790
164.2995,110.2555
164.3123,110.2489
164.3163,110.2470
164.3767,110.2211
164.4074,110.2003
164.4137,110.1966
164.4148,110.1960
164.4467,110.1796
164.4983,110.1390
164.5019,110.1364
164.5563,110.0996
164.5825,110.0734
164.5880,110.0685
164.6171,110.0455
164.6602,109.9959
164.6631,109.9927
166.4434,108.2124
166.5048,108.1789
166.5107,108.1778
166.7396,108.1396
166.9748,108.0588
167.0957,107.9934
167.1621,107.9574
167.2212,107.9425
168.4517,107.9425
168.5188,107.9622
168.5645,108.0150
168.5745,108.0841
168.5585,108.1190
168.5585,108.1350
168.5585,111.4466
180.4407,111.4466
180.4407,108.1350
171.8421,108.1350
171.7751,108.1154
171.7293,108.0625
171.7194,107.9934
171.7484,107.9298
171.8072,107.8921
171.8118,107.8908
171.8289,107.8865
171.8687,107.8765
171.8728,107.8746
171.8911,107.8680
171.8954,107.8668
171.9850,107.8236
172.0756,107.7825
172.0793,107.7799
172.0961,107.7701
172.1002,107.7682
172.1002,107.7682
172.1002,107.7682
172.1806,107.7097
172.2624,107.6531
172.2656,107.6499
172.2804,107.6372
172.2840,107.6346
172.3527,107.5627
176.1001,103.8153
176.1053,103.8107
176.1360,103.7862
176.1660,103.7519
176.2249,103.7143
176.2948,103.7146
176.3534,103.7526
176.3822,103.8163
176.3832,103.8409
176.3651,104.1400
176.3848,104.4660
176.4437,104.7873
176.5408,105.0992
176.5408,105.0992
176.6749,105.3970
176.6749,105.3970
176.8439,105.6766
176.9915,105.8650
178.1342,104.7222
178.2349,104.8636
178.3869,105.0086
178.4892,105.0743
177.3450,106.2185
177.3450,106.2185
177.5334,106.3661
177.5334,106.3661
177.8130,106.5351
177.8130,106.5351
178.1108,106.6692
178.1108,106.6692
178.4227,106.7663
178.7440,106.8252
179.0700,106.8449
179.3960,106.8252
179.7173,106.7663
180.0292,106.6692
180.0292,106.6692
180.3270,106.5351
180.3270,106.5351
180.6066,106.3661
180.6066,106.3661
180.7950,106.2185
180.7950,106.2185
179.6533,105.0769
179.6674,105.0696
179.8325,104.9397
179.9701,104.7810
180.0047,104.7211
181.1485,105.8650
181.1485,105.8650
181.2961,105.6766
181.2961,105.6766
181.4651,105.3970
181.4651,105.3970
181.5992,105.0992
181.5992,105.0992
181.6963,104.7873
181.7552,104.4660
181.7749,104.1400
181.7552,103.8140
181.6963,103.4927
181.5992,103.1808
181.5992,103.1808
181.4651,102.8830
181.4651,102.8830
181.2961,102.6034
181.2961,102.6034
181.1485,102.4150
180.0058,103.5578
179.9051,103.4164
179.7531,103.2714
179.6508,103.2057
180.7950,102.0615
180.7950,102.0615
180.6066,101.9139
180.3270,101.7449
180.3270,101.7449
180.0292,101.6108
180.0292,101.6108
179.7173,101.5137
179.3960,101.4548
179.0700,101.4351
178.7440,101.4548
178.4227,101.5137
178.1108,101.6108
178.1108,101.6108
177.8130,101.7449
177.8130,101.7449
177.5334,101.9139
177.3450,102.0615
177.3450,102.0615
178.4867,103.2031
178.4726,103.2104
178.3075,103.3403
178.1699,103.4990
178.1353,103.5589
176.9915,102.4150
176.9915,102.4150
176.8439,102.6034
176.7526,102.7544
176.7011,102.8016
176.6322,102.8134
176.5679,102.7861
176.5285,102.7284
176.5225,102.6902
176.5225,99.1718
176.5422,99.1048
176.5950,99.0590
176.6382,99.0481
176.6657,99.0462
176.7283,99.0420
176.7327,99.0409
176.7519,99.0376
176.7563,99.0372
176.7563,99.0372
176.7563,99.0372
176.8522,99.0108
176.9487,98.9865
176.9528,98.9846
176.9711,98.9780
176.9754,98.9768
177.0650,98.9336
177.1556,98.8925
177.1593,98.8899
177.1761,98.8801
177.1802,98.8782
177.1802,98.8782
177.1802,98.8782
177.2606,98.8197
177.3424,98.7631
177.3456,98.7599
177.3604,98.7472
177.3640,98.7446
177.4327,98.6727
178.2217,97.8838
178.2830,97.8503
178.3463,97.8530
178.4225,97.8768
178.7439,97.9357
179.0700,97.9554
179.3961,97.9357
179.7175,97.8768
180.0294,97.7796
180.3273,97.6455
180.6069,97.4765
180.8640,97.2750
181.0950,97.0440
181.2965,96.7869
181.4655,96.5073
181.5996,96.2094
181.6968,95.8975
181.7557,95.5761
181.7754,95.2500
181.7557,94.9239
181.6968,94.6025
181.5996,94.2906
181.4655,93.9927
181.2965,93.7131
181.2965,93.7131
181.2965,93.7131
181.0950,93.4560
180.8640,93.2250
180.6069,93.0235
180.5993,93.0189
180.3273,92.8545
180.0294,92.7204
180.0294,92.7204
180.0293,92.7204
179.7175,92.6232
179.3961,92.5643
179.0700,92.5446
178.7439,92.5643
178.4225,92.6232
178.1107,92.7204
178.1106,92.7204
178.1106,92.7204
177.8127,92.8545
177.7833,92.8723
177.5331,93.0235
177.2760,93.2250
177.0450,93.4560
176.8476,93.7079
176.7908,93.7485
176.7210,93.7519
176.6604,93.7171
176.6283,93.6551
176.6260,93.6314
176.6260,91.6250
173.7483,91.6250
173.7483,94.4366
176.3264,94.4366
176.3934,94.4563
176.4392,94.5091
176.4491,94.5783
176.4447,94.5975
176.4434,94.6017
176.4432,94.6026
176.3843,94.9239
176.3646,95.2500
176.3843,95.5761
176.4432,95.8974
176.4669,95.9737
176.4681,96.0436
176.4362,96.0983
176.0434,96.4912
175.9821,96.5247
175.9557,96.5275
175.2897,96.5275
175.2870,96.5274
175.2139,96.5242
175.2031,96.5237
175.2031,96.5237
175.2031,96.5237
175.1200,96.5349
175.1172,96.5352
175.0337,96.5428
175.0102,96.5492
175.0020,96.5509
174.9779,96.5542
174.8981,96.5801
174.8955,96.5809
174.8146,96.6032
174.8146,96.6032
174.7927,96.6138
174.7849,96.6169
174.7618,96.6244
174.7618,96.6244
174.6879,96.6642
174.6854,96.6654
174.6098,96.7018
174.6098,96.7018
174.5902,96.7161
174.5831,96.7206
174.5617,96.7321
174.4961,96.7844
174.4939,96.7861
174.4260,96.8354
174.4092,96.8530
174.4030,96.8586
174.3840,96.8738
174.3840,96.8738
174.3288,96.9370
174.3269,96.9390
174.2689,96.9997
174.2555,97.0200
174.2505,97.0266
174.2345,97.0449
174.2345,97.0449
174.1915,97.1169
174.1900,97.1193
174.1438,97.1893
174.1438,97.1893
174.1342,97.2117
174.1304,97.2191
174.1179,97.2400
174.1179,97.2400
174.0885,97.3185
174.0874,97.3211
174.0544,97.3983
174.0490,97.4220
174.0466,97.4300
174.0381,97.4528
174.0231,97.5353
174.0225,97.5381
174.0039,97.6198
174.0028,97.6441
174.0018,97.6524
173.9975,97.6764
173.9975,97.7603
173.9974,97.7630
173.9944,97.8300
173.9937,97.8469
173.9937,97.8469
173.9969,97.8710
173.9975,97.8793
173.9975,102.2957
173.9778,102.3627
173.9612,102.3834
170.9634,105.3812
170.9021,105.4147
170.8757,105.4175
167.2212,105.4175
167.1621,105.4026
166.9748,105.3012
166.9748,105.3012
166.9748,105.3012
166.9748,105.3012
166.9748,105.3012
166.7396,105.2204
166.4943,105.1795
166.2457,105.1795
166.0004,105.2204
165.7652,105.3012
165.7652,105.3012
165.5465,105.4195
165.3503,105.5723
165.1818,105.7552
165.0458,105.9634
164.9459,106.1911
164.8849,106.4322
164.8849,106.4322
164.8772,106.5255
164.8520,106.5906
164.8413,106.6029
163.3960,108.0482
163.3347,108.0817
163.3083,108.0845
159.7488,108.0845
159.6818,108.0648
159.6361,108.0120
159.6261,107.9429
159.6551,107.8793
159.6727,107.8626
159.7694,107.7874
159.7694,107.7874
159.9378,107.6045
160.0737,107.3964
160.1736,107.1687
160.2340,106.9300
159.1837,106.9300
159.2095,106.8898
159.2500,106.7519
159.2500,106.6081
159.2095,106.4702
159.1837,106.4300
160.2340,106.4300
160.1736,106.1913
160.0737,105.9636
159.9604,105.7901
159.9402,105.7232
159.9594,105.6560
160.0118,105.6099
160.0809,105.5994
160.1075,105.6061
160.1825,105.6341
160.2421,105.6405
162.3379,105.6405
162.3975,105.6341
162.5323,105.5838
162.6475,105.4975
162.7338,105.3823
162.7841,105.2475
162.7905,105.1879
162.7905,103.0921
162.7841,103.0325
162.7659,102.9836
162.7338,102.8977
162.7338,102.8977
162.6831,102.8300
166.1349,102.8300
166.1554,103.0777
166.1554,103.0777
166.2164,103.3187
166.3163,103.5464
166.4166,103.6999
167.1569,102.9595
167.1805,103.0398
167.2582,103.1608
167.3669,103.2550
167.4977,103.3147
167.5075,103.3161
166.7699,104.0536
166.8168,104.0901
166.8168,104.0901
167.0354,104.2084
167.0354,104.2084
167.2705,104.2891
167.5157,104.3300
167.7643,104.3300
168.0095,104.2891
168.2446,104.2084
168.2446,104.2084
168.4632,104.0901
168.4632,104.0901
168.5101,104.0536
167.7725,103.3161
167.7823,103.3147
167.9131,103.2550
168.0218,103.1608
168.0995,103.0398
168.1231,102.9595
168.8634,103.6999
168.9637,103.5464
169.0636,103.3187
169.1246,103.0777
169.1246,103.0777
169.1451,102.8300
169.1451,102.8300
169.1246,102.5823
169.1246,102.5823
169.0636,102.3413
168.9637,102.1136
168.8634,101.9601
168.1231,102.7005
168.0995,102.6202
168.0218,102.4992
167.9131,102.4050
167.7823,102.3453
167.7725,102.3439
168.5101,101.6064
168.5101,101.6064
168.4632,101.5699
168.2446,101.4516
168.2446,101.4516
168.0095,101.3709
167.7643,101.3300
167.5157,101.3300
167.2705,101.3709
167.0354,101.4516
167.0354,101.4516
166.8168,101.5699
166.7699,101.6064
166.7699,101.6064
167.5075,102.3439
167.4977,102.3453
167.3669,102.4050
167.2582,102.4992
167.1805,102.6202
167.1569,102.7005
166.4166,101.9601
166.3163,102.1136
166.2164,102.3413
166.1554,102.5823
166.1554,102.5823
166.1349,102.8300
166.1349,102.8300
162.6831,102.8300
162.6475,102.7825
162.6475,102.7825
162.5323,102.6962
162.5323,102.6962
162.3975,102.6459
162.3975,102.6459
162.3379,102.6395
162.3379,102.6395
162.3379,102.6395
162.3379,102.6395
161.6263,102.6395
161.5593,102.6198
161.5386,102.6032
156.1781,97.2427
156.1446,97.1814
156.1496,97.1117
156.1781,97.0673
156.9657,96.2797
157.7690,95.4764
157.8303,95.4429
157.8363,95.4418
157.8496,95.4396
158.0848,95.3588
158.3035,95.2405
158.4997,95.0877
158.6682,94.9048
158.8042,94.6966
158.9041,94.4689
158.9651,94.2278
158.9850,93.9875
158.9856,93.9800
159.7844,93.9800
159.8049,94.2278
159.8049,94.2278
159.8659,94.4689
159.9658,94.6966
160.1018,94.9048
160.1342,94.9400
160.2703,95.0877
160.4665,95.2405
160.6852,95.3588
160.9204,95.4396
160.9279,95.4408
160.9337,95.4418
160.9966,95.4722
161.0010,95.4764
164.1947,98.6701
164.1993,98.6753
164.2238,98.7060
164.2758,98.7514
164.2788,98.7543
164.2874,98.7628
164.2874,98.7628
164.3200,98.7901
164.3949,98.8555
164.3949,98.8555
164.3949,98.8555
164.3988,98.8578
164.4147,98.8691
164.4181,98.8720
164.5046,98.9211
164.5900,98.9721
164.5900,98.9721
164.5900,98.9721
164.5925,98.9730
164.5942,98.9737
164.6119,98.9819
164.6158,98.9841
164.7096,99.0170
164.8028,99.0519
164.8072,99.0527
164.8260,99.0577
164.8303,99.0592
164.9285,99.0747
164.9530,99.0792
165.0264,99.0925
165.0264,99.0925
165.0309,99.0925
165.0503,99.0940
165.0547,99.0947
165.1542,99.0925
166.7888,99.0925
166.8478,99.1074
166.9668,99.1718
167.0352,99.2088
167.2704,99.2896
167.2779,99.2908
167.2837,99.2918
167.3466,99.3222
167.3510,99.3264
167.9247,99.9001
167.9293,99.9053
167.9538,99.9360
168.0058,99.9814
168.0088,99.9843
168.0174,99.9928
168.0500,100.0201
168.1249,100.0855
168.1288,100.0878
168.1447,100.0991
168.1481,100.1020
168.2346,100.1511
168.2625,100.1677
168.3200,100.2021
168.3242,100.2037
168.3419,100.2119
168.3458,100.2141
168.3458,100.2141
168.3458,100.2141
168.4277,100.2428
168.4397,100.2470
168.5328,100.2819
168.5372,100.2827
168.5560,100.2877
168.5603,100.2892
168.6585,100.3047
168.7564,100.3225
168.7564,100.3225
168.7609,100.3225
168.7803,100.3240
168.7847,100.3247
168.8842,100.3225
169.8413,100.3225
169.9083,100.3422
169.9541,100.3950
169.9640,100.4641
169.9574,100.4898
169.9564,100.4926
169.9564,100.4926
169.9500,100.5522
169.9500,101.3500
171.0163,101.3500
170.9905,101.3902
170.9500,101.5281
170.9500,101.6719
170.9905,101.8098
171.0163,101.8500
169.9500,101.8500
169.9500,102.6478
169.9564,102.7074
169.9564,102.7074
170.0066,102.8421
170.0066,102.8421
170.0928,102.9572
170.0928,102.9572
170.2079,103.0433
170.2079,103.0434
170.3426,103.0936
170.3426,103.0936
170.4022,103.1000
170.4022,103.1000
171.2000,103.1000
171.2000,102.0355
171.3077,102.0847
171.4142,102.1000
171.4858,102.1000
171.5923,102.0847
171.7000,102.0355
171.7000,103.1000
172.4978,103.1000
172.4978,103.1000
172.5574,103.0936
172.5574,103.0936
172.6921,103.0434
172.6921,103.0433
172.8072,102.9572
172.8072,102.9572
172.8933,102.8421
172.8934,102.8421
172.9436,102.7074
172.9436,102.7074
172.9500,102.6478
172.9500,102.6478
172.9500,101.8500
171.8837,101.8500
171.9095,101.8098
171.9500,101.6719
171.9500,101.5281
171.9095,101.3902
171.8837,101.3500
172.9500,101.3500
172.9500,100.5522
172.9500,100.5522
172.9436,100.4926
172.9436,100.4926
172.8934,100.3579
172.8933,100.3579
172.8072,100.2428
172.8072,100.2428
172.6921,100.1566
172.6874,100.1541
172.6380,100.1047
172.6231,100.0364
172.6430,99.9774
172.7742,99.7766
172.8741,99.5489
172.9351,99.3078
172.9351,99.3078
172.9556,99.0600
172.9556,99.0600
172.9351,98.8122
172.9351,98.8122
172.8741,98.5711
172.7742,98.3434
172.6382,98.1352
172.5853,98.0778
172.4697,97.9523
172.2735,97.7995
172.2735,97.7995
172.2735,97.7995
172.0548,97.6812
172.0548,97.6812
171.8196,97.6004
171.5743,97.5595
171.3257,97.5595
171.0804,97.6004
170.8452,97.6812
170.8452,97.6812
170.6578,97.7826
170.5988,97.7975
169.4443,97.7975
169.3773,97.7778
169.3566,97.7612
169.1314,97.5360
169.0989,97.4788
169.0641,97.3411
168.9642,97.1134
168.9341,97.0673
168.8282,96.9052
168.7639,96.8354
168.6597,96.7223
168.4635,96.5695
168.4635,96.5695
168.4635,96.5695
168.2448,96.4512
168.2448,96.4512
168.0096,96.3704
167.7643,96.3295
167.5157,96.3295
167.2704,96.3704
167.0352,96.4512
167.0352,96.4512
166.8478,96.5526
166.7888,96.5675
165.7143,96.5675
165.6473,96.5478
165.6266,96.5312
162.7814,93.6860
162.7489,93.6288
162.7141,93.4911
162.6142,93.2634
162.5891,93.2250
162.4782,93.0552
162.4489,93.0235
162.3097,92.8723
162.1135,92.7195
162.1135,92.7195
162.1135,92.7195
161.8948,92.6012
161.8948,92.6012
161.6596,92.5204
161.4143,92.4795
161.1657,92.4795
160.9204,92.5204
160.6852,92.6012
160.6852,92.6012
160.4665,92.7195
160.2703,92.8723
160.1018,93.0552
159.9658,93.2634
159.8659,93.4911
159.8049,93.7322
159.8049,93.7322
159.7844,93.9800
159.7844,93.9800
158.9856,93.9800
158.9856,93.9800
158.9651,93.7322
158.9651,93.7322
158.9041,93.4911
158.8042,93.2634
158.6682,93.0552
158.6389,93.0235
158.4997,92.8723
158.3035,92.7195
158.3035,92.7195
158.3035,92.7195
158.0848,92.6012
158.0848,92.6012
157.8496,92.5204
157.6043,92.4795
157.3557,92.4795
157.1104,92.5204
156.8752,92.6012
156.8752,92.6012
156.6565,92.7195
156.4603,92.8723
156.2918,93.0552
156.1558,93.2634
156.0559,93.4911
156.0559,93.4911
156.0211,93.6288
155.9886,93.6860
153.2120,96.4625
153.1507,96.4960
153.0810,96.4910
153.0653,96.4839
153.0048,96.4512
153.0048,96.4512
152.7696,96.3704
152.5243,96.3295
152.2757,96.3295
152.0304,96.3704
151.7952,96.4512
151.7952,96.4512
151.5765,96.5695
151.3881,96.7161
151.3803,96.7223
151.3712,96.7321
151.2118,96.9052
151.0758,97.1134
150.9759,97.3411
150.9149,97.5822
150.9149,97.5822
150.8944,97.8300
150.8944,97.8300
149.1454,97.8300
148.0396,96.7242
148.0061,96.6629
148.0111,96.5932
148.0530,96.5372
148.1185,96.5128
148.1273,96.5125
148.5156,96.5125
148.5226,96.5129
148.5616,96.5173
148.5616,96.5173
148.5616,96.5173
148.6304,96.5126
148.6346,96.5125
148.6467,96.5125
148.6467,96.5125
148.6858,96.5090
148.6891,96.5087
148.6958,96.5082
148.7883,96.5020
148.7927,96.5009
148.8119,96.4976
148.8163,96.4972
148.8163,96.4972
148.8163,96.4972
148.9122,96.4708
149.0087,96.4465
149.0128,96.4446
149.0311,96.4380
149.0354,96.4368
149.1250,96.3936
149.2156,96.3525
149.2193,96.3499
149.2361,96.3401
149.2402,96.3382
149.2402,96.3382
149.2402,96.3382
149.3206,96.2797
149.4024,96.2231
149.4056,96.2199
149.4204,96.2072
149.4240,96.2046
149.4927,96.1327
150.1490,95.4764
150.2103,95.4429
150.2163,95.4418
150.2296,95.4396
150.4648,95.3588
150.6835,95.2405
150.8797,95.0877
151.0482,94.9048
151.1842,94.6966
151.2841,94.4689
151.3451,94.2278
151.3650,93.9875
151.3656,93.9800
151.3656,93.9800
151.3451,93.7322
151.3451,93.7322
151.2841,93.4911
151.1842,93.2634
151.0482,93.0552
151.0189,93.0235
150.8797,92.8723
150.6835,92.7195
150.6835,92.7195
150.6835,92.7195
150.4648,92.6012
150.4648,92.6012
150.2296,92.5204
149.9843,92.4795
149.7357,92.4795
149.4904,92.5204
149.2552,92.6012
149.2552,92.6012
149.0365,92.7195
148.8403,92.8723
148.6718,93.0552
148.5358,93.2634
148.4359,93.4911
148.4359,93.4911
148.4011,93.6288
148.3686,93.6860
148.1034,93.9512
148.0421,93.9847
148.0157,93.9875
147.2423,93.9875
147.1753,93.9678
147.1362,93.9276
147.0065,93.7131
146.8050,93.4560
146.8050,93.4560
146.5740,93.2250
146.3169,93.0235
146.3093,93.0189
146.0373,92.8545
145.7394,92.7204
145.7394,92.7204
145.7393,92.7204
145.4275,92.6232
145.1061,92.5643
144.7800,92.5446
144.4539,92.5643
144.1325,92.6232
143.8207,92.7204
143.8206,92.7204
143.8206,92.7204
143.5227,92.8545
143.4933,92.8723
143.2431,93.0235
142.9860,93.2250
142.7550,93.4560
142.5535,93.7131
142.5321,93.7485
142.3893,93.9847
142.3845,93.9927
142.3845,93.9927
142.2504,94.2906
142.2504,94.2907
142.1532,94.6025
142.0943,94.9239
142.0746,95.2500
140.9705,95.2500
140.9705,90.2945
140.9902,90.2275
141.0430,90.1817
141.0945,90.1705
182.7555,90.1705
Z" /> 
</g>
</g>
</g>
<g style="fill:#FFFFFF; fill-opacity:1.0000; 
stroke:#FFFFFF; stroke-width:0.0000; stroke-opacity:1; 
stroke-linecap:round; stroke-linejoin:round;">
<circle cx="179.0700" cy="104.1400" r="1.1000" /> 
</g>
<g style="fill:#FFFFFF; fill-opacity:1.0000; 
stroke:#FFFFFF; stroke-width:0.0212; stroke-opacity:1; 
stroke-linecap:round; stroke-linejoin:round;">
</g>
<g style="fill:#FFFFFF; fill-opacity:1.0000; 
stroke:#FFFFFF; stroke-width:0.0000; stroke-opacity:1; 
stroke-linecap:round; stroke-linejoin:round;">
<circle cx="171.4500" cy="101.6000" r="0.5000" /> 
</g>
<g style="fill:#FFFFFF; fill-opacity:1.0000; 
stroke:#FFFFFF; stroke-width:0.0212; stroke-opacity:1; 
stroke-linecap:round; stroke-linejoin:round;">
</g>
<g style="fill:#FFFFFF; fill-opacity:1.0000; 
stroke:#FFFFFF; stroke-width:0.0000; stroke-opacity:1; 
stroke-linecap:round; stroke-linejoin:round;">
<circle cx="171.4500" cy="99.0600" r="0.5000" /> 
</g>
<g style="fill:#FFFFFF; fill-opacity:1.0000; 
stroke:#FFFFFF; stroke-width:0.0212; stroke-opacity:1; 
stroke-linecap:round; stroke-linejoin:round;">
</g>
<g style="fill:#FFFFFF; fill-opacity:1.0000; 
stroke:#FFFFFF; stroke-width:0.0000; stroke-opacity:1; 
stroke-linecap:round; stroke-linejoin:round;">
<circle cx="166.3700" cy="106.6800" r="0.5000" /> 
</g>
<g style="fill:#FFFFFF; fill-opacity:1.0000; 
stroke:#FFFFFF; stroke-width:0.0212; stroke-opacity:1; 
stroke-linecap:round; stroke-linejoin:round;">
</g>
<g style="fill:#FFFFFF; fill-opacity:1.0000; 
stroke:#FFFFFF; stroke-width:0.0000; stroke-opacity:1; 
stroke-linecap:round; stroke-linejoin:round;">
<circle cx="158.7500" cy="106.6800" r="0.5000" /> 
</g>
<g style="fill:#FFFFFF; fill-opacity:1.0000; 
stroke:#FFFFFF; stroke-width:0.0212; stroke-opacity:1; 
stroke-linecap:round; stroke-linejoin:round;">
</g>
<g style="fill:#FFFFFF; fill-opacity:1.0000; 
stroke:#FFFFFF; stroke-width:0.0000; stroke-opacity:1; 
stroke-linecap:round; stroke-linejoin:round;">
<circle cx="151.2100" cy="109.2200" r="0.5000" /> 
</g>
<g style="fill:#FFFFFF; fill-opacity:1.0000; 
stroke:#FFFFFF; stroke-width:0.0212; stroke-opacity:1; 
stroke-linecap:round; stroke-linejoin:round;">
</g>
<g style="fill:#FFFFFF; fill-opacity:1.0000; 
stroke:#FFFFFF; stroke-width:0.0000; stroke-opacity:1; 
stroke-linecap:round; stroke-linejoin:round;">
<circle cx="156.2100" cy="109.2200" r="0.5000" /> 
</g>
<g style="fill:#FFFFFF; fill-opacity:1.0000; 
stroke:#FFFFFF; stroke-width:0.0212; stroke-opacity:1; 
stroke-linecap:round; stroke-linejoin:round;">
</g>
<g style="fill:#FFFFFF; fill-opacity:1.0000; 
stroke:#FFFFFF; stroke-width:0.0000; stroke-opacity:1; 
stroke-linecap:round; stroke-linejoin:round;">
<circle cx="149.8600" cy="93.9800" r="0.5000" /> 
</g>
<g style="fill:#FFFFFF; fill-opacity:1.0000; 
stroke:#FFFFFF; stroke-width:0.0212; stroke-opacity:1; 
stroke-linecap:round; stroke-linejoin:round;">
</g>
<g style="fill:#FFFFFF; fill-opacity:1.0000; 
stroke:#FFFFFF; stroke-width:0.0000; stroke-opacity:1; 
stroke-linecap:round; stroke-linejoin:round;">
<circle cx="157.4800" cy="93.9800" r="0.5000" /> 
</g>
<g style="fill:#FFFFFF; fill-opacity:1.0000; 
stroke:#FFFFFF; stroke-width:0.0212; stroke-opacity:1; 
stroke-linecap:round; stroke-linejoin:round;">
</g>
<g style="fill:#FFFFFF; fill-opacity:1.0000; 
stroke:#FFFFFF; stroke-width:0.0000; stroke-opacity:1; 
stroke-linecap:round; stroke-linejoin:round;">
<circle cx="179.0700" cy="95.2500" r="1.1000" /> 
</g>
<g style="fill:#FFFFFF; fill-opacity:1.0000; 
stroke:#FFFFFF; stroke-width:0.0212; stroke-opacity:1; 
stroke-linecap:round; stroke-linejoin:round;">
</g>
<g style="fill:#FFFFFF; fill-opacity:1.0000; 
stroke:#FFFFFF; stroke-width:0.0000; stroke-opacity:1; 
stroke-linecap:round; stroke-linejoin:round;">
<circle cx="152.4000" cy="97.8300" r="0.5000" /> 
</g>
<g style="fill:#FFFFFF; fill-opacity:1.0000; 
stroke:#FFFFFF; stroke-width:0.0212; stroke-opacity:1; 
stroke-linecap:round; stroke-linejoin:round;">
</g>
<g style="fill:#FFFFFF; fill-opacity:1.0000; 
stroke:#FFFFFF; stroke-width:0.0000; stroke-opacity:1; 
stroke-linecap:round; stroke-linejoin:round;">
<circle cx="152.4000" cy="102.8300" r="0.5000" /> 
</g>
<g style="fill:#FFFFFF; fill-opacity:1.0000; 
stroke:#FFFFFF; stroke-width:0.0212; stroke-opacity:1; 
stroke-linecap:round; stroke-linejoin:round;">
</g>
<g style="fill:#FFFFFF; fill-opacity:1.0000; 
stroke:#FFFFFF; stroke-width:0.0000; stroke-opacity:1; 
stroke-linecap:round; stroke-linejoin:round;">
<circle cx="161.2900" cy="104.1400" r="0.5000" /> 
</g>
<g style="fill:#FFFFFF; fill-opacity:1.0000; 
stroke:#FFFFFF; stroke-width:0.0212; stroke-opacity:1; 
stroke-linecap:round; stroke-linejoin:round;">
</g>
<g style="fill:#FFFFFF; fill-opacity:1.0000; 
stroke:#FFFFFF; stroke-width:0.0000; stroke-opacity:1; 
stroke-linecap:round; stroke-linejoin:round;">
<circle cx="161.2900" cy="93.9800" r="0.5000" /> 
</g>
<g style="fill:#FFFFFF; fill-opacity:1.0000; 
stroke:#FFFFFF; stroke-width:0.0212; stroke-opacity:1; 
stroke-linecap:round; stroke-linejoin:round;">
</g>
<g style="fill:#FFFFFF; fill-opacity:1.0000; 
stroke:#FFFFFF; stroke-width:0.0000; stroke-opacity:1; 
stroke-linecap:round; stroke-linejoin:round;">
<circle cx="144.7800" cy="104.1400" r="1.1000" /> 
</g>
<g style="fill:#FFFFFF; fill-opacity:1.0000; 
stroke:#FFFFFF; stroke-width:0.0212; stroke-opacity:1; 
stroke-linecap:round; stroke-linejoin:round;">
</g>
<g style="fill:#FFFFFF; fill-opacity:1.0000; 
stroke:#FFFFFF; stroke-width:0.0000; stroke-opacity:1; 
stroke-linecap:round; stroke-linejoin:round;">
<circle cx="144.7800" cy="95.2500" r="1.1000" /> 
</g>
<g style="fill:#FFFFFF; fill-opacity:1.0000; 
stroke:#FFFFFF; stroke-width:0.0212; stroke-opacity:1; 
stroke-linecap:round; stroke-linejoin:round;">
</g>
<g style="fill:#FFFFFF; fill-opacity:1.0000; 
stroke:#FFFFFF; stroke-width:0.0000; stroke-opacity:1; 
stroke-linecap:round; stroke-linejoin:round;">
<circle cx="167.6400" cy="102.8300" r="0.5000" /> 
</g>
<g style="fill:#FFFFFF; fill-opacity:1.0000; 
stroke:#FFFFFF; stroke-width:0.0212; stroke-opacity:1; 
stroke-linecap:round; stroke-linejoin:round;">
</g>
<g style="fill:#FFFFFF; fill-opacity:1.0000; 
stroke:#FFFFFF; stroke-width:0.0000; stroke-opacity:1; 
stroke-linecap:round; stroke-linejoin:round;">
<circle cx="167.6400" cy="97.8300" r="0.5000" /> 
</g>
<g style="fill:#FFFFFF; fill-opacity:1.0000; 
stroke:#FFFFFF; stroke-width:0.0212; stroke-opacity:1; 
stroke-linecap:round; stroke-linejoin:round;">
</g>
<g style="fill:#000000; fill-opacity:1.0000; 
stroke:#000000; stroke-width:0.0212; stroke-opacity:1; 
stroke-linecap:round; stroke-linejoin:round;">
</g> 
</svg>
