<?xml version="1.0" standalone="no"?>
 <!DOCTYPE svg PUBLIC "-//W3C//DTD SVG 1.1//EN" 
 "http://www.w3.org/Graphics/SVG/1.1/DTD/svg11.dtd"> 
<svg
  xmlns:svg="http://www.w3.org/2000/svg"
  xmlns="http://www.w3.org/2000/svg"
  xmlns:xlink="http://www.w3.org/1999/xlink"
  version="1.1"
  width="297.0022mm" height="210.0072mm" viewBox="0.0000 0.0000 297.0022 210.0072">
<title>SVG Image created as mini_whip-B_Cu.svg date 2024/01/01 11:41:15 </title>
  <desc>Image generated by PCBNEW </desc>
<g style="fill:#000000; fill-opacity:1.0000;stroke:#000000; stroke-opacity:1.0000;
stroke-linecap:round; stroke-linejoin:round;"
 transform="translate(0 0) scale(1 1)">
</g>
<g style="fill:#000000; fill-opacity:0.0; 
stroke:#000000; stroke-width:0.0000; stroke-opacity:1; 
stroke-linecap:round; stroke-linejoin:round;">
</g>
<g style="fill:#000000; fill-opacity:0.0; 
stroke:#000000; stroke-width:0.1250; stroke-opacity:1; 
stroke-linecap:round; stroke-linejoin:round;">
<text x="146.0500" y="97.7900"
transform="scale(-1 1) translate(-292.100000 0)"
textLength="6.5083" font-size="1.3333" lengthAdjust="spacingAndGlyphs"
text-anchor="start" opacity="0">Miniwhip</text>
<g class="stroked-text"><desc>Miniwhip</desc>
<path d="M145.7297 97.6611
L145.7297 96.6611
" />
<path d="M145.7297 96.6611
L145.3963 97.3754
" />
<path d="M145.3963 97.3754
L145.0630 96.6611
" />
<path d="M145.0630 96.6611
L145.0630 97.6611
" />
<path d="M144.5868 97.6611
L144.5868 96.9945
" />
<path d="M144.5868 96.6611
L144.6344 96.7087
" />
<path d="M144.6344 96.7087
L144.5868 96.7564
" />
<path d="M144.5868 96.7564
L144.5392 96.7087
" />
<path d="M144.5392 96.7087
L144.5868 96.6611
" />
<path d="M144.5868 96.6611
L144.5868 96.7564
" />
<path d="M144.1106 96.9945
L144.1106 97.6611
" />
<path d="M144.1106 97.0897
L144.0630 97.0421
" />
<path d="M144.0630 97.0421
L143.9678 96.9945
" />
<path d="M143.9678 96.9945
L143.8249 96.9945
" />
<path d="M143.8249 96.9945
L143.7297 97.0421
" />
<path d="M143.7297 97.0421
L143.6821 97.1373
" />
<path d="M143.6821 97.1373
L143.6821 97.6611
" />
<path d="M143.2059 97.6611
L143.2059 96.9945
" />
<path d="M143.2059 96.6611
L143.2535 96.7087
" />
<path d="M143.2535 96.7087
L143.2059 96.7564
" />
<path d="M143.2059 96.7564
L143.1582 96.7087
" />
<path d="M143.1582 96.7087
L143.2059 96.6611
" />
<path d="M143.2059 96.6611
L143.2059 96.7564
" />
<path d="M142.8249 96.9945
L142.6344 97.6611
" />
<path d="M142.6344 97.6611
L142.4440 97.1849
" />
<path d="M142.4440 97.1849
L142.2535 97.6611
" />
<path d="M142.2535 97.6611
L142.0630 96.9945
" />
<path d="M141.6821 97.6611
L141.6821 96.6611
" />
<path d="M141.2535 97.6611
L141.2535 97.1373
" />
<path d="M141.2535 97.1373
L141.3011 97.0421
" />
<path d="M141.3011 97.0421
L141.3963 96.9945
" />
<path d="M141.3963 96.9945
L141.5392 96.9945
" />
<path d="M141.5392 96.9945
L141.6344 97.0421
" />
<path d="M141.6344 97.0421
L141.6821 97.0897
" />
<path d="M140.7773 97.6611
L140.7773 96.9945
" />
<path d="M140.7773 96.6611
L140.8249 96.7087
" />
<path d="M140.8249 96.7087
L140.7773 96.7564
" />
<path d="M140.7773 96.7564
L140.7297 96.7087
" />
<path d="M140.7297 96.7087
L140.7773 96.6611
" />
<path d="M140.7773 96.6611
L140.7773 96.7564
" />
<path d="M140.3011 96.9945
L140.3011 97.9945
" />
<path d="M140.3011 97.0421
L140.2059 96.9945
" />
<path d="M140.2059 96.9945
L140.0154 96.9945
" />
<path d="M140.0154 96.9945
L139.9201 97.0421
" />
<path d="M139.9201 97.0421
L139.8725 97.0897
" />
<path d="M139.8725 97.0897
L139.8249 97.1849
" />
<path d="M139.8249 97.1849
L139.8249 97.4706
" />
<path d="M139.8249 97.4706
L139.8725 97.5659
" />
<path d="M139.8725 97.5659
L139.9201 97.6135
" />
<path d="M139.9201 97.6135
L140.0154 97.6611
" />
<path d="M140.0154 97.6611
L140.2059 97.6611
" />
<path d="M140.2059 97.6611
L140.3011 97.6135
" />
</g><g >
</g>
<g style="fill:#000000; fill-opacity:1.0000; 
stroke:#000000; stroke-width:0.0000; stroke-opacity:1; 
stroke-linecap:round; stroke-linejoin:round;">
<circle cx="144.7800" cy="88.9000" r="2.2000" /> 
</g>
<g style="fill:#000000; fill-opacity:1.0000; 
stroke:#000000; stroke-width:0.0212; stroke-opacity:1; 
stroke-linecap:round; stroke-linejoin:round;">
</g>
<g >
</g>
<g style="fill:#000000; fill-opacity:1.0000; 
stroke:#000000; stroke-width:0.0212; stroke-opacity:1; 
stroke-linecap:round; stroke-linejoin:round;">
</g>
<g style="fill:#000000; fill-opacity:1.0000; 
stroke:#000000; stroke-width:0.0000; stroke-opacity:1; 
stroke-linecap:round; stroke-linejoin:round;">
<circle cx="135.8500" cy="87.2624" r="1.0000" /> 
</g>
<g style="fill:#000000; fill-opacity:1.0000; 
stroke:#000000; stroke-width:0.0212; stroke-opacity:1; 
stroke-linecap:round; stroke-linejoin:round;">
</g>
<g style="fill:#000000; fill-opacity:1.0000; 
stroke:#000000; stroke-width:0.0000; stroke-opacity:1; 
stroke-linecap:round; stroke-linejoin:round;">
<circle cx="130.8500" cy="87.2624" r="1.0000" /> 
</g>
<g style="fill:#000000; fill-opacity:1.0000; 
stroke:#000000; stroke-width:0.0212; stroke-opacity:1; 
stroke-linecap:round; stroke-linejoin:round;">
</g>
<g >
</g>
<g style="fill:#000000; fill-opacity:1.0000; 
stroke:#000000; stroke-width:0.0212; stroke-opacity:1; 
stroke-linecap:round; stroke-linejoin:round;">
</g>
<g style="fill:#000000; fill-opacity:1.0000; 
stroke:#000000; stroke-width:0.0000; stroke-opacity:1; 
stroke-linecap:round; stroke-linejoin:round;">
<circle cx="114.3000" cy="96.5200" r="1.0000" /> 
</g>
<g style="fill:#000000; fill-opacity:1.0000; 
stroke:#000000; stroke-width:0.0212; stroke-opacity:1; 
stroke-linecap:round; stroke-linejoin:round;">
</g>
<g style="fill:#000000; fill-opacity:1.0000; 
stroke:#000000; stroke-width:0.0000; stroke-opacity:1; 
stroke-linecap:round; stroke-linejoin:round;">
<circle cx="114.3000" cy="88.9000" r="1.0000" /> 
</g>
<g >
</g>
<g style="fill:#000000; fill-opacity:1.0000; 
stroke:#000000; stroke-width:0.0000; stroke-opacity:1; 
stroke-linecap:round; stroke-linejoin:round;">
<circle cx="110.4900" cy="95.2500" r="1.0000" /> 
</g>
<g style="fill:#000000; fill-opacity:1.0000; 
stroke:#000000; stroke-width:0.0212; stroke-opacity:1; 
stroke-linecap:round; stroke-linejoin:round;">
</g>
<g >
</g>
<g style="fill:#000000; fill-opacity:1.0000; 
stroke:#000000; stroke-width:0.0212; stroke-opacity:1; 
stroke-linecap:round; stroke-linejoin:round;">
</g>
<g style="fill:#000000; fill-opacity:1.0000; 
stroke:#000000; stroke-width:0.0000; stroke-opacity:1; 
stroke-linecap:round; stroke-linejoin:round;">
<path style="fill:#000000; fill-opacity:1.0000; 
stroke:#000000; stroke-width:0.0000; stroke-opacity:1; 
stroke-linecap:round; stroke-linejoin:round;fill-rule:evenodd;"
d="M 113.3000,81.0000
113.3000,79.0000
115.3000,79.0000
115.3000,81.0000
Z" /> 
<circle cx="116.8400" cy="82.5400" r="1.0000" /> 
</g>
<g style="fill:#000000; fill-opacity:1.0000; 
stroke:#000000; stroke-width:0.0212; stroke-opacity:1; 
stroke-linecap:round; stroke-linejoin:round;">
</g>
<g style="fill:#000000; fill-opacity:1.0000; 
stroke:#000000; stroke-width:0.0000; stroke-opacity:1; 
stroke-linecap:round; stroke-linejoin:round;">
<circle cx="114.3000" cy="85.0800" r="1.0000" /> 
</g>
<g style="fill:#000000; fill-opacity:1.0000; 
stroke:#000000; stroke-width:0.0212; stroke-opacity:1; 
stroke-linecap:round; stroke-linejoin:round;">
</g>
<g >
</g>
<g style="fill:#000000; fill-opacity:1.0000; 
stroke:#000000; stroke-width:0.0212; stroke-opacity:1; 
stroke-linecap:round; stroke-linejoin:round;">
</g>
<g style="fill:#000000; fill-opacity:1.0000; 
stroke:#000000; stroke-width:0.0000; stroke-opacity:1; 
stroke-linecap:round; stroke-linejoin:round;">
<circle cx="119.8312" cy="91.1243" r="1.0000" /> 
</g>
<g style="fill:#000000; fill-opacity:1.0000; 
stroke:#000000; stroke-width:0.0212; stroke-opacity:1; 
stroke-linecap:round; stroke-linejoin:round;">
</g>
<g style="fill:#000000; fill-opacity:1.0000; 
stroke:#000000; stroke-width:0.0000; stroke-opacity:1; 
stroke-linecap:round; stroke-linejoin:round;">
<circle cx="127.4512" cy="91.1243" r="1.0000" /> 
</g>
<g >
</g>
<g style="fill:#000000; fill-opacity:1.0000; 
stroke:#000000; stroke-width:0.0000; stroke-opacity:1; 
stroke-linecap:round; stroke-linejoin:round;">
<circle cx="120.6900" cy="82.1824" r="1.0000" /> 
</g>
<g style="fill:#000000; fill-opacity:1.0000; 
stroke:#000000; stroke-width:0.0212; stroke-opacity:1; 
stroke-linecap:round; stroke-linejoin:round;">
</g>
<g style="fill:#000000; fill-opacity:1.0000; 
stroke:#000000; stroke-width:0.0000; stroke-opacity:1; 
stroke-linecap:round; stroke-linejoin:round;">
<circle cx="125.6900" cy="82.1824" r="1.0000" /> 
</g>
<g style="fill:#000000; fill-opacity:1.0000; 
stroke:#000000; stroke-width:0.0212; stroke-opacity:1; 
stroke-linecap:round; stroke-linejoin:round;">
</g>
<g >
</g>
<g style="fill:#000000; fill-opacity:1.0000; 
stroke:#000000; stroke-width:0.0212; stroke-opacity:1; 
stroke-linecap:round; stroke-linejoin:round;">
</g>
<g style="fill:#000000; fill-opacity:1.0000; 
stroke:#000000; stroke-width:0.0000; stroke-opacity:1; 
stroke-linecap:round; stroke-linejoin:round;">
<circle cx="123.1900" cy="70.7524" r="1.0000" /> 
</g>
<g style="fill:#000000; fill-opacity:1.0000; 
stroke:#000000; stroke-width:0.0212; stroke-opacity:1; 
stroke-linecap:round; stroke-linejoin:round;">
</g>
<g style="fill:#000000; fill-opacity:1.0000; 
stroke:#000000; stroke-width:0.0000; stroke-opacity:1; 
stroke-linecap:round; stroke-linejoin:round;">
<circle cx="123.1900" cy="78.3724" r="1.0000" /> 
</g>
<g >
</g>
<g style="fill:#000000; fill-opacity:1.0000; 
stroke:#000000; stroke-width:0.0000; stroke-opacity:1; 
stroke-linecap:round; stroke-linejoin:round;">
<circle cx="119.3800" cy="72.3900" r="1.0000" /> 
</g>
<g style="fill:#000000; fill-opacity:1.0000; 
stroke:#000000; stroke-width:0.0212; stroke-opacity:1; 
stroke-linecap:round; stroke-linejoin:round;">
</g>
<g style="fill:#000000; fill-opacity:1.0000; 
stroke:#000000; stroke-width:0.0000; stroke-opacity:1; 
stroke-linecap:round; stroke-linejoin:round;">
<circle cx="114.3800" cy="72.3900" r="1.0000" /> 
</g>
<g style="fill:#000000; fill-opacity:1.0000; 
stroke:#000000; stroke-width:0.0212; stroke-opacity:1; 
stroke-linecap:round; stroke-linejoin:round;">
</g>
<g >
</g>
<g style="fill:#000000; fill-opacity:1.0000; 
stroke:#000000; stroke-width:0.0212; stroke-opacity:1; 
stroke-linecap:round; stroke-linejoin:round;">
</g>
<g style="fill:#000000; fill-opacity:1.0000; 
stroke:#000000; stroke-width:0.0000; stroke-opacity:1; 
stroke-linecap:round; stroke-linejoin:round;">
<circle cx="119.8312" cy="87.3143" r="1.0000" /> 
</g>
<g style="fill:#000000; fill-opacity:1.0000; 
stroke:#000000; stroke-width:0.0212; stroke-opacity:1; 
stroke-linecap:round; stroke-linejoin:round;">
</g>
<g style="fill:#000000; fill-opacity:1.0000; 
stroke:#000000; stroke-width:0.0000; stroke-opacity:1; 
stroke-linecap:round; stroke-linejoin:round;">
<circle cx="127.4512" cy="87.3143" r="1.0000" /> 
</g>
<g >
</g>
<g style="fill:#000000; fill-opacity:1.0000; 
stroke:#000000; stroke-width:0.0000; stroke-opacity:1; 
stroke-linecap:round; stroke-linejoin:round;">
</g>
<g style="fill:#000000; fill-opacity:1.0000; 
stroke:#000000; stroke-width:1.2000; stroke-opacity:1; 
stroke-linecap:round; stroke-linejoin:round;">
</g>
<g style="fill:#000000; fill-opacity:0.0; 
stroke:#000000; stroke-width:1.2000; stroke-opacity:1; 
stroke-linecap:round; stroke-linejoin:round;">
<path d="M132.4800 75.8324
L131.6800 75.8324
" />
</g>
<g style="fill:#000000; fill-opacity:1.0000; 
stroke:#000000; stroke-width:0.0000; stroke-opacity:1; 
stroke-linecap:round; stroke-linejoin:round;">
<circle cx="129.5400" cy="78.3724" r="1.0000" /> 
<circle cx="132.0800" cy="80.9124" r="1.0000" /> 
</g>
<g >
</g>
<g style="fill:#000000; fill-opacity:1.0000; 
stroke:#000000; stroke-width:0.0000; stroke-opacity:1; 
stroke-linecap:round; stroke-linejoin:round;">
<circle cx="130.8100" cy="95.2500" r="1.0000" /> 
</g>
<g style="fill:#000000; fill-opacity:1.0000; 
stroke:#000000; stroke-width:0.0212; stroke-opacity:1; 
stroke-linecap:round; stroke-linejoin:round;">
</g>
<g style="fill:#000000; fill-opacity:1.0000; 
stroke:#000000; stroke-width:0.0000; stroke-opacity:1; 
stroke-linecap:round; stroke-linejoin:round;">
<circle cx="138.4300" cy="95.2500" r="1.0000" /> 
</g>
<g >
</g>
<g style="fill:#000000; fill-opacity:1.0000; 
stroke:#000000; stroke-width:0.0000; stroke-opacity:1; 
stroke-linecap:round; stroke-linejoin:round;">
<circle cx="111.7600" cy="75.8324" r="1.0000" /> 
</g>
<g style="fill:#000000; fill-opacity:1.0000; 
stroke:#000000; stroke-width:0.0212; stroke-opacity:1; 
stroke-linecap:round; stroke-linejoin:round;">
</g>
<g style="fill:#000000; fill-opacity:1.0000; 
stroke:#000000; stroke-width:0.0000; stroke-opacity:1; 
stroke-linecap:round; stroke-linejoin:round;">
<circle cx="119.3800" cy="75.8324" r="1.0000" /> 
</g>
<g >
</g>
<g style="fill:#000000; fill-opacity:1.0000; 
stroke:#000000; stroke-width:0.0000; stroke-opacity:1; 
stroke-linecap:round; stroke-linejoin:round;">
<circle cx="109.2200" cy="89.8024" r="1.0000" /> 
</g>
<g style="fill:#000000; fill-opacity:1.0000; 
stroke:#000000; stroke-width:0.0212; stroke-opacity:1; 
stroke-linecap:round; stroke-linejoin:round;">
</g>
<g style="fill:#000000; fill-opacity:1.0000; 
stroke:#000000; stroke-width:0.0000; stroke-opacity:1; 
stroke-linecap:round; stroke-linejoin:round;">
<circle cx="109.2200" cy="82.1824" r="1.0000" /> 
</g>
<g >
</g>
<g style="fill:#000000; fill-opacity:1.0000; 
stroke:#000000; stroke-width:0.0000; stroke-opacity:1; 
stroke-linecap:round; stroke-linejoin:round;">
<circle cx="138.4700" cy="70.7524" r="1.0000" /> 
</g>
<g style="fill:#000000; fill-opacity:1.0000; 
stroke:#000000; stroke-width:0.0212; stroke-opacity:1; 
stroke-linecap:round; stroke-linejoin:round;">
</g>
<g style="fill:#000000; fill-opacity:1.0000; 
stroke:#000000; stroke-width:0.0000; stroke-opacity:1; 
stroke-linecap:round; stroke-linejoin:round;">
<circle cx="143.4700" cy="70.7524" r="1.0000" /> 
</g>
<g style="fill:#000000; fill-opacity:1.0000; 
stroke:#000000; stroke-width:0.0212; stroke-opacity:1; 
stroke-linecap:round; stroke-linejoin:round;">
</g>
<g >
</g>
<g style="fill:#000000; fill-opacity:1.0000; 
stroke:#000000; stroke-width:0.0212; stroke-opacity:1; 
stroke-linecap:round; stroke-linejoin:round;">
</g>
<g style="fill:#000000; fill-opacity:1.0000; 
stroke:#000000; stroke-width:0.0000; stroke-opacity:1; 
stroke-linecap:round; stroke-linejoin:round;">
<circle cx="109.2200" cy="70.7524" r="1.0000" /> 
</g>
<g style="fill:#000000; fill-opacity:1.0000; 
stroke:#000000; stroke-width:0.0212; stroke-opacity:1; 
stroke-linecap:round; stroke-linejoin:round;">
</g>
<g style="fill:#000000; fill-opacity:1.0000; 
stroke:#000000; stroke-width:0.0000; stroke-opacity:1; 
stroke-linecap:round; stroke-linejoin:round;">
<circle cx="109.2200" cy="78.3724" r="1.0000" /> 
</g>
<g >
</g>
<g style="fill:#000000; fill-opacity:1.0000; 
stroke:#000000; stroke-width:0.0000; stroke-opacity:1; 
stroke-linecap:round; stroke-linejoin:round;">
<circle cx="119.8312" cy="94.9343" r="1.0000" /> 
</g>
<g style="fill:#000000; fill-opacity:1.0000; 
stroke:#000000; stroke-width:0.0212; stroke-opacity:1; 
stroke-linecap:round; stroke-linejoin:round;">
</g>
<g style="fill:#000000; fill-opacity:1.0000; 
stroke:#000000; stroke-width:0.0000; stroke-opacity:1; 
stroke-linecap:round; stroke-linejoin:round;">
<circle cx="127.4512" cy="94.9343" r="1.0000" /> 
</g>
<g >
</g>
<g style="fill:#000000; fill-opacity:1.0000; 
stroke:#000000; stroke-width:0.0000; stroke-opacity:1; 
stroke-linecap:round; stroke-linejoin:round;">
<circle cx="134.6200" cy="70.7524" r="1.0000" /> 
</g>
<g style="fill:#000000; fill-opacity:1.0000; 
stroke:#000000; stroke-width:0.0212; stroke-opacity:1; 
stroke-linecap:round; stroke-linejoin:round;">
</g>
<g style="fill:#000000; fill-opacity:1.0000; 
stroke:#000000; stroke-width:0.0000; stroke-opacity:1; 
stroke-linecap:round; stroke-linejoin:round;">
<circle cx="127.0000" cy="70.7524" r="1.0000" /> 
</g>
<g >
</g>
<g style="fill:#000000; fill-opacity:1.0000; 
stroke:#000000; stroke-width:0.0000; stroke-opacity:1; 
stroke-linecap:round; stroke-linejoin:round;">
<circle cx="144.7800" cy="81.2800" r="2.2000" /> 
</g>
<g style="fill:#000000; fill-opacity:1.0000; 
stroke:#000000; stroke-width:0.0212; stroke-opacity:1; 
stroke-linecap:round; stroke-linejoin:round;">
</g>
<g >
</g>
<g >
</g>
<g style="fill:#000000; fill-opacity:1.0000; 
stroke:#000000; stroke-width:0.0212; stroke-opacity:1; 
stroke-linecap:round; stroke-linejoin:round;">
</g>
<g style="fill:#000000; fill-opacity:1.0000; 
stroke:#000000; stroke-width:1.2700; stroke-opacity:1; 
stroke-linecap:round; stroke-linejoin:round;">
</g>
<g style="fill:#000000; fill-opacity:0.0; 
stroke:#000000; stroke-width:1.2700; stroke-opacity:1; 
stroke-linecap:round; stroke-linejoin:round;">
<path d="M134.6200 70.7524
L138.4700 70.7524
" />
<path d="M132.0800 75.8324
L132.0800 73.2924
" />
<path d="M132.0800 73.2924
L134.6200 70.7524
" />
</g>
<g style="fill:#000000; fill-opacity:0.0; 
stroke:#000000; stroke-width:1.5240; stroke-opacity:1; 
stroke-linecap:round; stroke-linejoin:round;">
<path d="M119.8312 94.9343
L117.5692 92.6723
" />
<path d="M117.5692 92.6723
L117.5692 85.8192
" />
<path d="M116.8400 82.5400
L120.3324 82.5400
" />
<path d="M116.8400 85.0900
L116.8400 82.5400
" />
<path d="M117.5692 85.8192
L116.8400 85.0900
" />
</g>
<g style="fill:#000000; fill-opacity:0.0; 
stroke:#000000; stroke-width:1.2700; stroke-opacity:1; 
stroke-linecap:round; stroke-linejoin:round;">
<path d="M120.3324 82.5400
L120.6900 82.1824
" />
<path d="M120.5581 87.3143
L125.6900 82.1824
" />
<path d="M119.8312 87.3143
L119.8312 91.1243
" />
<path d="M119.8312 87.3143
L120.5581 87.3143
" />
<path d="M123.1900 78.3724
L123.1900 79.6824
" />
<path d="M123.1900 79.6824
L125.6900 82.1824
" />
</g>
<g style="fill:#000000; fill-opacity:0.0; 
stroke:#000000; stroke-width:1.5240; stroke-opacity:1; 
stroke-linecap:round; stroke-linejoin:round;">
<path d="M114.3800 72.3900
L115.5700 73.5800
" />
</g>
<g style="fill:#000000; fill-opacity:0.0; 
stroke:#000000; stroke-width:1.2700; stroke-opacity:1; 
stroke-linecap:round; stroke-linejoin:round;">
<path d="M132.0800 80.9124
L132.0800 83.4924
" />
<path d="M132.0800 83.4924
L135.8500 87.2624
" />
</g>
<g style="fill:#000000; fill-opacity:0.0; 
stroke:#000000; stroke-width:1.0160; stroke-opacity:1; 
stroke-linecap:round; stroke-linejoin:round;">
<path d="M132.0800 80.9124
L132.0800 78.3173
" />
</g>
<g style="fill:#000000; fill-opacity:0.0; 
stroke:#000000; stroke-width:1.2700; stroke-opacity:1; 
stroke-linecap:round; stroke-linejoin:round;">
<path d="M123.1900 70.7524
L122.1900 69.7524
" />
<path d="M114.3800 72.3900
L110.8576 72.3900
" />
<path d="M122.1900 69.7524
L115.3800 69.7524
" />
</g>
<g style="fill:#000000; fill-opacity:0.0; 
stroke:#000000; stroke-width:1.5240; stroke-opacity:1; 
stroke-linecap:round; stroke-linejoin:round;">
<path d="M115.5700 73.5800
L115.5700 78.7300
" />
<path d="M115.5700 78.7300
L114.3000 80.0000
" />
</g>
<g style="fill:#000000; fill-opacity:0.0; 
stroke:#000000; stroke-width:0.7620; stroke-opacity:1; 
stroke-linecap:round; stroke-linejoin:round;">
<path d="M132.0800 78.3173
L127.4540 73.6913
" />
</g>
<g style="fill:#000000; fill-opacity:0.0; 
stroke:#000000; stroke-width:1.2700; stroke-opacity:1; 
stroke-linecap:round; stroke-linejoin:round;">
<path d="M110.8576 72.3900
L109.2200 70.7524
" />
</g>
<g style="fill:#000000; fill-opacity:0.0; 
stroke:#000000; stroke-width:1.0160; stroke-opacity:1; 
stroke-linecap:round; stroke-linejoin:round;">
<path d="M123.1900 73.5475
L123.1900 70.7524
" />
</g>
<g style="fill:#000000; fill-opacity:0.0; 
stroke:#000000; stroke-width:1.2700; stroke-opacity:1; 
stroke-linecap:round; stroke-linejoin:round;">
<path d="M115.3800 69.7524
L114.3800 70.7524
" />
<path d="M135.8500 90.2100
L130.8100 95.2500
" />
<path d="M135.8500 87.2624
L135.8500 90.2100
" />
<path d="M114.3800 70.7524
L114.3800 72.3900
" />
</g>
<g style="fill:#000000; fill-opacity:0.0; 
stroke:#000000; stroke-width:1.0160; stroke-opacity:1; 
stroke-linecap:round; stroke-linejoin:round;">
<path d="M127.4540 73.6913
L123.3338 73.6913
" />
</g>
<g style="fill:#000000; fill-opacity:0.0; 
stroke:#000000; stroke-width:1.2700; stroke-opacity:1; 
stroke-linecap:round; stroke-linejoin:round;">
<path d="M109.2200 89.8024
L113.3976 89.8024
" />
<path d="M109.2283 89.8107
L109.2200 89.8024
" />
</g>
<g style="fill:#000000; fill-opacity:0.0; 
stroke:#000000; stroke-width:1.5240; stroke-opacity:1; 
stroke-linecap:round; stroke-linejoin:round;">
<path d="M114.3000 85.0800
L114.3000 88.9000
" />
</g>
<g style="fill:#000000; fill-opacity:0.0; 
stroke:#000000; stroke-width:1.2700; stroke-opacity:1; 
stroke-linecap:round; stroke-linejoin:round;">
<path d="M113.3976 89.8024
L114.3000 88.9000
" />
<path d="M129.5400 85.2254
L129.5400 78.3724
" />
<path d="M127.4512 87.3143
L129.5400 85.2254
" />
<path d="M109.2200 78.3724
L109.2200 82.1824
" />
<path d="M109.2200 78.3724
L111.7600 75.8324
" />
</g>
<g style="fill:#000000; fill-opacity:0.0; 
stroke:#000000; stroke-width:1.5240; stroke-opacity:1; 
stroke-linecap:round; stroke-linejoin:round;">
<path d="M110.4900 95.2500
L113.0300 95.2500
" />
<path d="M113.0300 95.2500
L114.3000 96.5200
" />
</g>
<g style="fill:#000000; fill-opacity:0.0; 
stroke:#000000; stroke-width:1.2700; stroke-opacity:1; 
stroke-linecap:round; stroke-linejoin:round;">
<path d="M139.7000 81.2800
L139.7000 84.7224
" />
<path d="M143.4700 70.7524
L139.7000 74.5224
" />
<path d="M144.7800 81.2800
L139.7000 81.2800
" />
<path d="M139.7000 74.5224
L139.7000 81.2800
" />
<path d="M139.7000 93.9800
L139.7000 84.7224
" />
<path d="M138.4300 95.2500
L139.7000 93.9800
" />
</g>
<g >
</g>
<g style="fill:#000000; fill-opacity:0.0; 
stroke:#000000; stroke-width:1.2700; stroke-opacity:1; 
stroke-linecap:round; stroke-linejoin:round;">
<g >
</g>
<g style="fill:#000000; fill-opacity:1.0000; 
stroke:#000000; stroke-width:0.0000; stroke-opacity:1; 
stroke-linecap:round; stroke-linejoin:round;">
<path style="fill:#000000; fill-opacity:1.0000; 
stroke:#000000; stroke-width:0.0000; stroke-opacity:1; 
stroke-linecap:round; stroke-linejoin:round;fill-rule:evenodd;"
d="M 148.4326,67.8102
148.4784,67.8630
148.4896,67.9145
148.4896,98.9355
148.4699,99.0025
148.4171,99.0483
148.3656,99.0595
106.7036,99.0595
106.6365,99.0398
106.5908,98.9870
106.5796,98.9355
106.5796,95.2500
108.9844,95.2500
109.0049,95.4978
109.0049,95.4978
109.0659,95.7389
109.1658,95.9666
109.3018,96.1748
109.3018,96.1748
109.4703,96.3577
109.6665,96.5105
109.7373,96.5488
109.8852,96.6288
109.8852,96.6288
110.1204,96.7096
110.3657,96.7505
110.6143,96.7505
110.8596,96.7096
111.0948,96.6288
111.2085,96.5673
111.2822,96.5274
111.3412,96.5125
112.4557,96.5125
112.5227,96.5322
112.5434,96.5488
112.8086,96.8140
112.8411,96.8712
112.8759,97.0089
112.8759,97.0089
112.9758,97.2366
113.1118,97.4448
113.1118,97.4448
113.2803,97.6277
113.4765,97.7805
113.6952,97.8988
113.9304,97.9796
114.1757,98.0205
114.4243,98.0205
114.6696,97.9796
114.9048,97.8988
115.1235,97.7805
115.3197,97.6277
115.4882,97.4448
115.6242,97.2366
115.7241,97.0089
115.7851,96.7678
115.7851,96.7678
115.8056,96.5200
115.8056,96.5200
115.7851,96.2722
115.7851,96.2722
115.7241,96.0311
115.6242,95.8034
115.4882,95.5952
115.3985,95.4978
115.3197,95.4123
115.1235,95.2595
115.1235,95.2595
115.1235,95.2595
114.9048,95.1412
114.9048,95.1412
114.6696,95.0604
114.6563,95.0582
114.5934,95.0278
114.5890,95.0236
113.9753,94.4099
113.9707,94.4047
113.9462,94.3740
113.8942,94.3286
113.8912,94.3257
113.8826,94.3172
113.8500,94.2899
113.7751,94.2245
113.7712,94.2222
113.7553,94.2109
113.7519,94.2080
113.7519,94.2080
113.7519,94.2080
113.7519,94.2080
113.6654,94.1589
113.5800,94.1079
113.5800,94.1079
113.5800,94.1079
113.5800,94.1079
113.5800,94.1079
113.5758,94.1063
113.5581,94.0981
113.5542,94.0959
113.4604,94.0630
113.3672,94.0281
113.3672,94.0281
113.3628,94.0273
113.3440,94.0223
113.3397,94.0208
113.3397,94.0208
113.2681,94.0095
113.2415,94.0053
113.2219,94.0017
113.1436,93.9875
113.1436,93.9875
113.1391,93.9875
113.1197,93.9860
113.1153,93.9853
113.1153,93.9853
113.0158,93.9875
111.3412,93.9875
111.2822,93.9726
111.0948,93.8712
111.0948,93.8712
111.0948,93.8712
111.0948,93.8712
111.0948,93.8712
110.8596,93.7904
110.6143,93.7495
110.3657,93.7495
110.1204,93.7904
109.8852,93.8712
109.8852,93.8712
109.6665,93.9895
109.4703,94.1423
109.3018,94.3252
109.1658,94.5334
109.0659,94.7611
109.0049,95.0022
109.0049,95.0022
108.9844,95.2500
108.9844,95.2500
106.5796,95.2500
106.5796,89.8024
107.7144,89.8024
107.7349,90.0502
107.7349,90.0502
107.7959,90.2913
107.8958,90.5190
108.0318,90.7272
108.0639,90.7620
108.2003,90.9101
108.3965,91.0629
108.6152,91.1812
108.8504,91.2620
109.0957,91.3029
109.3443,91.3029
109.5896,91.2620
109.8248,91.1812
110.0435,91.0629
110.1212,91.0023
110.1705,90.9640
110.2355,90.9384
110.2466,90.9379
113.2925,90.9379
113.3130,90.9396
113.3162,90.9401
113.4091,90.9379
113.4111,90.9379
113.4517,90.9379
113.4517,90.9379
113.4517,90.9379
113.4517,90.9379
113.4524,90.9378
113.4630,90.9368
113.4674,90.9365
113.5330,90.9350
113.5588,90.9294
113.5693,90.9271
113.5766,90.9260
113.5769,90.9259
113.6135,90.9224
113.6765,90.9039
113.6808,90.9028
113.7449,90.8889
113.7790,90.8743
113.7860,90.8718
113.8216,90.8613
113.8671,90.8378
113.8799,90.8312
113.8839,90.8294
113.9443,90.8035
113.9750,90.7827
113.9813,90.7790
113.9905,90.7743
114.0143,90.7620
114.0659,90.7214
114.0695,90.7188
114.1239,90.6820
114.1501,90.6557
114.1556,90.6508
114.1848,90.6279
114.2278,90.5783
114.2308,90.5751
114.3734,90.4324
114.4348,90.3989
114.4407,90.3978
114.6696,90.3596
114.9048,90.2788
115.1235,90.1605
115.3197,90.0077
115.4882,89.8248
115.6242,89.6166
115.7241,89.3889
115.7851,89.1478
115.7851,89.1478
115.8056,88.9000
115.8056,88.9000
115.7851,88.6522
115.7851,88.6522
115.7241,88.4111
115.6242,88.1834
115.5827,88.1199
115.5625,88.0530
115.5625,88.0521
115.5625,85.9279
115.5822,85.8609
115.5826,85.8602
115.6056,85.8250
115.6588,85.7796
115.7280,85.7702
115.7913,85.7997
115.8114,85.8222
115.8669,85.9024
115.8701,85.9056
115.8828,85.9204
115.8854,85.9240
115.8854,85.9240
115.9573,85.9927
116.2703,86.3058
116.3038,86.3671
116.3067,86.3935
116.3067,92.5979
116.3063,92.6048
116.3059,92.6084
116.3019,92.6438
116.3019,92.6438
116.3065,92.7127
116.3067,92.7169
116.3067,92.7290
116.3105,92.7713
116.3172,92.8706
116.3183,92.8749
116.3215,92.8941
116.3219,92.8986
116.3484,92.9945
116.3727,93.0909
116.3727,93.0909
116.3745,93.0950
116.3812,93.1133
116.3824,93.1177
116.3824,93.1177
116.4255,93.2073
116.4667,93.2978
116.4667,93.2978
116.4692,93.3015
116.4790,93.3183
116.4810,93.3224
116.4810,93.3224
116.5394,93.4029
116.5961,93.4846
116.5993,93.4878
116.6119,93.5026
116.6146,93.5063
116.6146,93.5063
116.6864,93.5750
118.3397,95.2283
118.3722,95.2855
118.4071,95.4231
118.4071,95.4231
118.5070,95.6509
118.6430,95.8590
118.6430,95.8590
118.8114,96.0420
119.0076,96.1947
119.0076,96.1947
119.2255,96.3126
119.2263,96.3131
119.4453,96.3883
119.4601,96.3933
119.4615,96.3938
119.7068,96.4348
119.9555,96.4348
120.2008,96.3938
120.4360,96.3131
120.6547,96.1947
120.8509,96.0420
121.0193,95.8590
121.1553,95.6509
121.2552,95.4231
121.3157,95.1843
125.9671,95.1843
126.0276,95.4230
126.1274,95.6506
126.2634,95.8587
126.4317,96.0416
126.4318,96.0416
126.6279,96.1943
126.6279,96.1943
126.8465,96.3126
126.8465,96.3126
127.0817,96.3933
127.2012,96.4133
127.2012,96.4133
127.2012,95.1843
125.9671,95.1843
121.3157,95.1843
121.3163,95.1821
121.3197,95.1412
121.3344,94.9636
127.0975,94.9636
127.1262,95.0768
127.1901,95.1746
127.2823,95.2463
127.3927,95.2843
127.4802,95.2843
127.5664,95.2699
127.6691,95.2143
127.6967,95.1843
127.7012,95.1843
127.7012,96.4133
127.8206,96.3933
128.0558,96.3126
128.0558,96.3126
128.2744,96.1943
128.2744,96.1943
128.4706,96.0416
128.4706,96.0416
128.6389,95.8587
128.7749,95.6506
128.8747,95.4230
128.9352,95.1843
127.7012,95.1843
127.6967,95.1843
127.7482,95.1283
127.7951,95.0214
127.8048,94.9050
127.7761,94.7917
127.7122,94.6939
127.6200,94.6222
127.5096,94.5843
127.4221,94.5843
127.3359,94.5986
127.2332,94.6542
127.1541,94.7402
127.1072,94.8472
127.0975,94.9636
121.3344,94.9636
121.3368,94.9343
121.3368,94.9343
121.3163,94.6864
121.3163,94.6864
121.3157,94.6843
125.9671,94.6843
127.2012,94.6843
127.2012,93.4552
127.7012,93.4552
127.7012,94.6843
128.9352,94.6843
128.8747,94.4455
128.7749,94.2179
128.6389,94.0098
128.4706,93.8269
128.4706,93.8269
128.2744,93.6742
128.2744,93.6742
128.0558,93.5559
128.0558,93.5559
127.8206,93.4752
127.7012,93.4552
127.2012,93.4552
127.2012,93.4552
127.0817,93.4752
126.8465,93.5559
126.8465,93.5559
126.6279,93.6742
126.6279,93.6742
126.4318,93.8269
126.4317,93.8269
126.2634,94.0098
126.1274,94.2179
126.0276,94.4455
125.9671,94.6843
121.3157,94.6843
121.2552,94.4454
121.1553,94.2177
121.0193,94.0095
120.9853,93.9726
120.8509,93.8265
120.6547,93.6738
120.6547,93.6738
120.6547,93.6738
120.4360,93.5554
120.4360,93.5554
120.2008,93.4747
120.1874,93.4725
120.1246,93.4420
120.1202,93.4378
119.5007,92.8184
119.4673,92.7571
119.4722,92.6874
119.5141,92.6315
119.5796,92.6070
119.6088,92.6084
119.7068,92.6248
119.7068,92.6248
119.9555,92.6248
120.2008,92.5838
120.4360,92.5031
120.6547,92.3847
120.8509,92.2320
121.0193,92.0490
121.1553,91.8409
121.2552,91.6131
121.3157,91.3743
125.9671,91.3743
126.0276,91.6130
126.1274,91.8406
126.2634,92.0487
126.4317,92.2316
126.4318,92.2316
126.6279,92.3843
126.6279,92.3843
126.8465,92.5026
126.8465,92.5026
127.0817,92.5833
127.2012,92.6033
127.2012,92.6033
127.2012,91.3743
125.9671,91.3743
121.3157,91.3743
121.3163,91.3721
121.3207,91.3183
121.3344,91.1536
127.0975,91.1536
127.1262,91.2668
127.1901,91.3646
127.2823,91.4363
127.3927,91.4743
127.4802,91.4743
127.5664,91.4599
127.6691,91.4043
127.6967,91.3743
127.7012,91.3743
127.7012,92.6033
127.8206,92.5833
128.0558,92.5026
128.0558,92.5026
128.2744,92.3843
128.2744,92.3843
128.4706,92.2316
128.4706,92.2316
128.6389,92.0487
128.7749,91.8406
128.8747,91.6130
128.9352,91.3743
127.7012,91.3743
127.6967,91.3743
127.7482,91.3183
127.7951,91.2114
127.8048,91.0950
127.7761,90.9817
127.7122,90.8839
127.6200,90.8122
127.5096,90.7743
127.4221,90.7743
127.3359,90.7886
127.2332,90.8442
127.1541,90.9302
127.1072,91.0372
127.0975,91.1536
121.3344,91.1536
121.3368,91.1243
121.3368,91.1243
121.3163,90.8764
121.3163,90.8764
121.3157,90.8743
125.9671,90.8743
127.2012,90.8743
127.2012,89.6452
127.7012,89.6452
127.7012,90.8743
128.9352,90.8743
128.8747,90.6355
128.7749,90.4079
128.6389,90.1998
128.4706,90.0169
128.4706,90.0169
128.2744,89.8642
128.2744,89.8642
128.0558,89.7459
128.0558,89.7459
127.8206,89.6652
127.7012,89.6452
127.2012,89.6452
127.2012,89.6452
127.0817,89.6652
126.8465,89.7459
126.8465,89.7459
126.6279,89.8642
126.6279,89.8642
126.4318,90.0169
126.4317,90.0169
126.2634,90.1998
126.1274,90.4079
126.0276,90.6355
125.9671,90.8743
121.3157,90.8743
121.2552,90.6354
121.1553,90.4077
121.0439,90.2371
121.0193,90.1995
120.9994,90.1779
120.9685,90.1152
120.9667,90.0939
120.9667,88.4567
120.9863,88.3897
121.0338,88.3465
121.0371,88.3449
121.0404,88.3431
121.0444,88.3412
121.1048,88.3154
121.1355,88.2946
121.1418,88.2908
121.1429,88.2903
121.1748,88.2739
121.2264,88.2333
121.2300,88.2307
121.2373,88.2257
121.2844,88.1939
121.3106,88.1676
121.3161,88.1627
121.3453,88.1398
121.3883,88.0902
121.3913,88.0870
125.7634,83.7148
125.8248,83.6813
125.8307,83.6801
126.0596,83.6420
126.2948,83.5612
126.5135,83.4429
126.7097,83.2901
126.8782,83.1072
127.0142,82.8990
127.1141,82.6713
127.1751,82.4302
127.1754,82.4267
127.1956,82.1824
127.1956,82.1824
127.1751,81.9346
127.1751,81.9346
127.1141,81.6935
127.0142,81.4658
126.8782,81.2576
126.8103,81.1839
126.7097,81.0746
126.5135,80.9219
126.5135,80.9219
126.5135,80.9219
126.2948,80.8036
126.2948,80.8036
126.0596,80.7228
125.8307,80.6846
125.7678,80.6542
125.7634,80.6500
124.4622,79.3487
124.4287,79.2874
124.4337,79.2177
124.4461,79.1932
124.4937,79.1203
124.5142,79.0890
124.6141,78.8613
124.6751,78.6202
124.6804,78.5562
124.6956,78.3724
124.6956,78.3724
124.6751,78.1246
124.6751,78.1246
124.6141,77.8835
124.5142,77.6558
124.3782,77.4476
124.2726,77.3329
124.2097,77.2646
124.0135,77.1119
124.0135,77.1119
124.0135,77.1119
123.7948,76.9936
123.7948,76.9935
123.5596,76.9128
123.3143,76.8719
123.0657,76.8719
122.8204,76.9128
122.5852,76.9935
122.5852,76.9936
122.3665,77.1119
122.1703,77.2646
122.0018,77.4476
121.8658,77.6558
121.7659,77.8835
121.7049,78.1246
121.7049,78.1246
121.6844,78.3724
121.6844,78.3724
121.7049,78.6202
121.7049,78.6202
121.7659,78.8613
121.8658,79.0890
121.9906,79.2800
122.0018,79.2972
122.0217,79.3188
122.0527,79.3814
122.0545,79.4028
122.0545,79.5772
122.0528,79.5978
122.0522,79.6010
122.0522,79.6010
122.0522,79.6010
122.0545,79.6959
122.0545,79.7365
122.0550,79.7418
122.0556,79.7477
122.0558,79.7522
122.0574,79.8178
122.0653,79.8540
122.0664,79.8613
122.0699,79.8982
122.0699,79.8982
122.0699,79.8982
122.0699,79.8983
122.0881,79.9602
122.0884,79.9612
122.0895,79.9655
122.0943,79.9876
122.1035,80.0297
122.1035,80.0297
122.1181,80.0638
122.1206,80.0707
122.1310,80.1063
122.1310,80.1063
122.1507,80.1445
122.1611,80.1647
122.1630,80.1687
122.1889,80.2290
122.1889,80.2290
122.2096,80.2598
122.2134,80.2661
122.2304,80.2991
122.2710,80.3507
122.2736,80.3542
122.3092,80.4068
122.3104,80.4086
122.3104,80.4086
122.3366,80.4348
122.3415,80.4404
122.3645,80.4695
122.4141,80.5125
122.4173,80.5155
123.9965,82.0947
124.0300,82.1560
124.0250,82.2257
123.9965,82.2701
120.4126,85.8539
120.3513,85.8874
120.2847,85.8835
120.2008,85.8547
119.9555,85.8138
119.7068,85.8138
119.4615,85.8547
119.2263,85.9354
119.2263,85.9354
119.0147,86.0500
118.9463,86.0646
118.8810,86.0399
118.8393,85.9838
118.8317,85.9409
118.8317,85.8935
118.8320,85.8866
118.8364,85.8476
118.8336,85.8052
118.8318,85.7787
118.8317,85.7746
118.8317,85.7625
118.8317,85.7625
118.8278,85.7201
118.8211,85.6209
118.8200,85.6165
118.8168,85.5973
118.8164,85.5928
118.8164,85.5928
118.7899,85.4969
118.7656,85.4005
118.7638,85.3964
118.7571,85.3781
118.7559,85.3738
118.7128,85.2841
118.6716,85.1936
118.6691,85.1899
118.6593,85.1731
118.6573,85.1690
118.5989,85.0885
118.5422,85.0068
118.5390,85.0036
118.5264,84.9888
118.5238,84.9852
118.5238,84.9852
118.4519,84.9164
118.1388,84.6034
118.1053,84.5421
118.1025,84.5157
118.1025,83.9265
118.1222,83.8595
118.1750,83.8137
118.2265,83.8025
120.3891,83.8025
120.3891,83.8025
120.5482,83.7882
120.5587,83.7872
120.7778,83.7268
120.7778,83.7268
120.7778,83.7268
120.8819,83.6766
120.9153,83.6660
121.0596,83.6420
121.2948,83.5612
121.5135,83.4429
121.7097,83.2901
121.8782,83.1072
122.0142,82.8990
122.1141,82.6713
122.1751,82.4302
122.1754,82.4267
122.1956,82.1824
122.1956,82.1824
122.1751,81.9346
122.1751,81.9346
122.1141,81.6935
122.0142,81.4658
121.8782,81.2576
121.8103,81.1839
121.7097,81.0746
121.5135,80.9219
121.5135,80.9219
121.5135,80.9219
121.2948,80.8036
121.2948,80.8036
121.0596,80.7228
120.8143,80.6819
120.5657,80.6819
120.3204,80.7228
120.0852,80.8036
120.0852,80.8036
119.8665,80.9219
119.7047,81.0479
119.6703,81.0746
119.5203,81.2375
119.4605,81.2735
119.4291,81.2775
117.6912,81.2775
117.6321,81.2626
117.4448,81.1612
117.4448,81.1612
117.4448,81.1612
117.4448,81.1612
117.4448,81.1612
117.2096,81.0804
116.9643,81.0395
116.7157,81.0395
116.4704,81.0804
116.2352,81.1612
116.2352,81.1612
116.0165,81.2795
115.9579,81.3251
115.8929,81.3508
115.8244,81.3372
115.7741,81.2887
115.7579,81.2207
115.7656,81.1839
115.7941,81.1075
115.8005,81.0479
115.8005,80.3363
115.8202,80.2693
115.8368,80.2486
116.4101,79.6753
116.4153,79.6707
116.4460,79.6462
116.4914,79.5942
116.4942,79.5912
116.5028,79.5826
116.5301,79.5500
116.5955,79.4751
116.5978,79.4712
116.6091,79.4553
116.6120,79.4519
116.6611,79.3654
116.7121,79.2800
116.7136,79.2758
116.7219,79.2581
116.7241,79.2542
116.7570,79.1604
116.7919,79.0672
116.7927,79.0628
116.7977,79.0440
116.7992,79.0397
116.8147,78.9415
116.8236,78.8925
116.8325,78.8436
116.8325,78.8391
116.8340,78.8197
116.8347,78.8153
116.8325,78.7158
116.8325,76.0824
117.8960,76.0824
117.9564,76.3211
118.0563,76.5487
118.1922,76.7569
118.3606,76.9397
118.3606,76.9398
118.5568,77.0924
118.5568,77.0924
118.7754,77.2107
118.7754,77.2107
119.0105,77.2915
119.1300,77.3114
119.1300,77.3114
119.1300,76.0824
117.8960,76.0824
116.8325,76.0824
116.8325,75.8617
119.0264,75.8617
119.0550,75.9749
119.1189,76.0727
119.2111,76.1445
119.3216,76.1824
119.4090,76.1824
119.4952,76.1680
119.5979,76.1124
119.6256,76.0824
119.6300,76.0824
119.6300,77.3114
119.7495,77.2915
119.9846,77.2107
119.9846,77.2107
120.2032,77.0924
120.2032,77.0924
120.3994,76.9398
120.3994,76.9397
120.5678,76.7569
120.7037,76.5487
120.8036,76.3211
120.8640,76.0824
119.6300,76.0824
119.6256,76.0824
119.6771,76.0265
119.7240,75.9195
119.7336,75.8031
119.7050,75.6898
119.6411,75.5921
119.5489,75.5203
119.4384,75.4824
119.3510,75.4824
119.2648,75.4968
119.1621,75.5524
119.0829,75.6383
119.0360,75.7453
119.0264,75.8617
116.8325,75.8617
116.8325,75.5824
117.8960,75.5824
119.1300,75.5824
119.1300,74.3534
119.6300,74.3534
119.6300,75.5824
120.8640,75.5824
120.8036,75.3437
120.7037,75.1160
120.5678,74.9079
120.3994,74.7250
120.3994,74.7250
120.2032,74.5723
120.2032,74.5723
119.9846,74.4540
119.9846,74.4540
119.7495,74.3733
119.6300,74.3534
119.1300,74.3534
119.1300,74.3534
119.0105,74.3733
118.7754,74.4540
118.7754,74.4540
118.5568,74.5723
118.5568,74.5723
118.3606,74.7250
118.3606,74.7250
118.1922,74.9079
118.0563,75.1160
117.9564,75.3437
117.8960,75.5824
116.8325,75.5824
116.8325,73.6544
116.8329,73.6474
116.8373,73.6084
116.8326,73.5396
116.8325,73.5354
116.8325,73.5233
116.8325,73.5233
116.8287,73.4809
116.8220,73.3817
116.8209,73.3773
116.8176,73.3581
116.8172,73.3537
116.8172,73.3537
116.7908,73.2578
116.7665,73.1613
116.7646,73.1572
116.7580,73.1389
116.7568,73.1346
116.7568,73.1346
116.7136,73.0450
116.6725,72.9544
116.6725,72.9544
116.6699,72.9507
116.6601,72.9339
116.6582,72.9298
116.5997,72.8494
116.5730,72.8108
116.5431,72.7676
116.5399,72.7644
116.5272,72.7496
116.5246,72.7460
116.5246,72.7460
116.4527,72.6773
115.8714,72.0960
115.8389,72.0388
115.8041,71.9011
115.7042,71.6734
115.5682,71.4652
115.5483,71.4436
115.5173,71.3809
115.5155,71.3596
115.5155,71.2741
115.5352,71.2070
115.5518,71.1864
115.8140,70.9242
115.8753,70.8907
115.9017,70.8879
118.5144,70.8879
118.5814,70.9076
118.6272,70.9604
118.6371,71.0295
118.6081,71.0931
118.5734,71.1209
118.5568,71.1299
118.5099,71.1664
118.5099,71.1664
119.3356,71.9920
119.2549,72.0048
119.1420,72.0624
119.0524,72.1520
118.9948,72.2649
118.9820,72.3456
118.1566,71.5201
118.0563,71.6736
117.9564,71.9013
117.8954,72.1423
117.8954,72.1423
117.8749,72.3900
117.8749,72.3900
117.8954,72.6377
117.8954,72.6377
117.9564,72.8787
118.0563,73.1064
118.1566,73.2599
118.9820,72.4344
118.9948,72.5151
119.0524,72.6280
119.1420,72.7176
119.2549,72.7752
119.3356,72.7880
118.5099,73.6136
118.5568,73.6501
118.5568,73.6501
118.7754,73.7684
118.7754,73.7684
119.0105,73.8491
119.2557,73.8900
119.5043,73.8900
119.7495,73.8491
119.9846,73.7684
119.9846,73.7684
120.2032,73.6501
120.2032,73.6501
120.2501,73.6136
119.4244,72.7880
119.5051,72.7752
119.6180,72.7176
119.7076,72.6280
119.7652,72.5151
119.7780,72.4344
120.6034,73.2599
120.7037,73.1064
120.8036,72.8787
120.8646,72.6377
120.8646,72.6377
120.8851,72.3900
120.8851,72.3900
120.8646,72.1423
120.8646,72.1423
120.8036,71.9013
120.7037,71.6736
120.6034,71.5201
119.7780,72.3456
119.7652,72.2649
119.7076,72.1520
119.6180,72.0624
119.5051,72.0048
119.4244,71.9920
120.2501,71.1664
120.2501,71.1664
120.2032,71.1299
120.1866,71.1209
120.1370,71.0717
120.1219,71.0035
120.1461,70.9379
120.2018,70.8959
120.2456,70.8879
121.5814,70.8879
121.6485,70.9076
121.6942,70.9604
121.7033,70.9953
121.7040,70.9951
121.7049,71.0002
121.7659,71.2413
121.8658,71.4690
122.0018,71.6772
122.1487,71.8367
122.1797,71.8994
122.1815,71.9207
122.1815,73.5970
122.1831,73.6136
122.1961,73.7452
122.2538,73.9353
122.3474,74.1105
122.3474,74.1105
122.4734,74.2641
122.5430,74.3211
122.5602,74.3383
122.6172,74.4079
122.7708,74.5339
122.7708,74.5339
122.9460,74.6275
122.9460,74.6275
122.9460,74.6275
123.1361,74.6852
123.1361,74.6852
123.1731,74.6889
123.2843,74.6998
127.1645,74.6998
127.2315,74.7195
127.2522,74.7361
129.2224,76.7063
129.2558,76.7676
129.2509,76.8373
129.2090,76.8932
129.1749,76.9112
128.9352,76.9935
128.9352,76.9936
128.7165,77.1119
128.5203,77.2646
128.3518,77.4476
128.2158,77.6558
128.1159,77.8835
128.0549,78.1246
128.0549,78.1246
128.0344,78.3724
128.0344,78.3724
128.0549,78.6202
128.0549,78.6202
128.1159,78.8613
128.2158,79.0890
128.3406,79.2800
128.3518,79.2972
128.3717,79.3188
128.4027,79.3814
128.4045,79.4028
128.4045,84.7037
128.3848,84.7708
128.3682,84.7914
127.3777,85.7819
127.3164,85.8154
127.3104,85.8165
127.0815,85.8547
126.8464,85.9354
126.8463,85.9354
126.6276,86.0538
126.4314,86.2065
126.2630,86.3895
126.1270,86.5977
126.0271,86.8254
125.9660,87.0664
125.9660,87.0664
125.9455,87.3143
125.9455,87.3143
125.9660,87.5621
125.9660,87.5621
126.0271,87.8031
126.1270,88.0309
126.2630,88.2390
126.2630,88.2390
126.4314,88.4220
126.6276,88.5747
126.8463,88.6931
127.0815,88.7738
127.3268,88.8148
127.5755,88.8148
127.8208,88.7738
128.0560,88.6931
128.2747,88.5747
128.4709,88.4220
128.6393,88.2390
128.7753,88.0309
128.8752,87.8031
128.9363,87.5621
128.9440,87.4688
128.9691,87.4036
128.9799,87.3914
129.1376,87.2336
129.1990,87.2001
129.2687,87.2051
129.3246,87.2470
129.3489,87.3111
129.3654,87.5101
129.3654,87.5101
129.4264,87.7511
129.5263,87.9787
129.6266,88.1323
130.4520,87.3068
130.4648,87.3875
130.5224,87.5004
130.6120,87.5900
130.7249,87.6475
130.8056,87.6603
129.9799,88.4860
130.0268,88.5224
130.0268,88.5224
130.2454,88.6407
130.2454,88.6407
130.4805,88.7215
130.7257,88.7624
130.9743,88.7624
131.2195,88.7215
131.4546,88.6407
131.4546,88.6407
131.6732,88.5224
131.6732,88.5224
131.7201,88.4860
130.8944,87.6603
130.9751,87.6475
131.0880,87.5900
131.1776,87.5004
131.2352,87.3875
131.2480,87.3068
132.0734,88.1323
132.1737,87.9787
132.2736,87.7511
132.3346,87.5101
132.3346,87.5101
132.3551,87.2624
132.3551,87.2624
132.3346,87.0147
132.3346,87.0146
132.2736,86.7737
132.1737,86.5460
132.0734,86.3925
131.2480,87.2180
131.2352,87.1372
131.1776,87.0243
131.0880,86.9347
130.9751,86.8772
130.8944,86.8644
131.7201,86.0388
131.6732,86.0023
131.4546,85.8840
131.4546,85.8840
131.2195,85.8033
130.9743,85.7624
130.7314,85.7624
130.6643,85.7427
130.6186,85.6899
130.6086,85.6207
130.6162,85.5923
130.6256,85.5689
130.6345,85.5468
130.6415,85.5103
130.6433,85.5032
130.6546,85.4679
130.6624,85.4027
130.6631,85.3983
130.6755,85.3338
130.6755,85.2968
130.6759,85.2894
130.6766,85.2841
130.6803,85.2526
130.6757,85.1871
130.6755,85.1826
130.6755,81.9199
130.6952,81.8529
130.7480,81.8072
130.8171,81.7972
130.8807,81.8262
130.8907,81.8360
130.8918,81.8372
130.8918,81.8372
130.9063,81.8529
130.9117,81.8588
130.9427,81.9214
130.9445,81.9428
130.9445,83.3872
130.9428,83.4078
130.9422,83.4110
130.9422,83.4110
130.9422,83.4110
130.9445,83.5059
130.9445,83.5465
130.9450,83.5518
130.9456,83.5577
130.9458,83.5622
130.9474,83.6278
130.9553,83.6640
130.9564,83.6713
130.9571,83.6787
130.9599,83.7082
130.9599,83.7082
130.9784,83.7712
130.9795,83.7755
130.9870,83.8096
130.9935,83.8397
130.9935,83.8397
131.0081,83.8738
131.0106,83.8807
131.0183,83.9068
131.0210,83.9163
131.0511,83.9747
131.0530,83.9787
131.0789,84.0390
131.0789,84.0390
131.0996,84.0698
131.1034,84.0761
131.1204,84.1091
131.1610,84.1607
131.1636,84.1642
131.1992,84.2168
131.2004,84.2186
131.2004,84.2186
131.2266,84.2448
131.2315,84.2504
131.2545,84.2795
131.3041,84.3225
131.3073,84.3255
133.5794,86.5977
134.3213,87.3395
134.3548,87.4008
134.3572,87.4169
134.3649,87.5102
134.3649,87.5102
134.4259,87.7513
134.5258,87.9790
134.6179,88.1199
134.6618,88.1872
134.6817,88.2088
134.7127,88.2714
134.7145,88.2928
134.7145,89.6883
134.6948,89.7553
134.6782,89.7760
130.7366,93.7176
130.6752,93.7511
130.6693,93.7522
130.4404,93.7904
130.2052,93.8712
130.2052,93.8712
129.9865,93.9895
129.7903,94.1423
129.6218,94.3252
129.4858,94.5334
129.3859,94.7611
129.3249,95.0022
129.3249,95.0022
129.3044,95.2500
129.3044,95.2500
129.3249,95.4978
129.3249,95.4978
129.3859,95.7389
129.4858,95.9666
129.6218,96.1748
129.6218,96.1748
129.7903,96.3577
129.9865,96.5105
130.0573,96.5488
130.2052,96.6288
130.2052,96.6288
130.4404,96.7096
130.6857,96.7505
130.9343,96.7505
131.1796,96.7096
131.4148,96.6288
131.6335,96.5105
131.8297,96.3577
131.9982,96.1748
132.1342,95.9666
132.2341,95.7389
132.2951,95.4978
132.3028,95.4045
132.3280,95.3394
132.3387,95.3271
132.4158,95.2500
136.9244,95.2500
136.9449,95.4978
136.9449,95.4978
137.0059,95.7389
137.1058,95.9666
137.2418,96.1748
137.2418,96.1748
137.4103,96.3577
137.6065,96.5105
137.6773,96.5488
137.8252,96.6288
137.8252,96.6288
138.0604,96.7096
138.3057,96.7505
138.5543,96.7505
138.7996,96.7096
139.0348,96.6288
139.0348,96.6288
139.0348,96.6288
139.0772,96.6059
139.1455,96.5913
139.2109,96.6159
139.2526,96.6720
139.2602,96.7149
139.2602,98.5626
146.2937,98.5626
146.2937,96.0930
139.8885,96.0930
139.8215,96.0733
139.7757,96.0205
139.7658,95.9513
139.7750,95.9192
139.8258,95.8034
139.8541,95.7389
139.9151,95.4978
139.9228,95.4045
139.9480,95.3394
139.9587,95.3271
140.4286,94.8573
140.4443,94.8439
140.4470,94.8421
140.5125,94.7734
140.5412,94.7447
140.5484,94.7359
140.5513,94.7326
140.5966,94.6851
140.6167,94.6539
140.6210,94.6480
140.6446,94.6194
140.6761,94.5617
140.6784,94.5579
140.7139,94.5027
140.7276,94.4683
140.7308,94.4616
140.7486,94.4290
140.7686,94.3664
140.7700,94.3623
140.7945,94.3014
140.8015,94.2649
140.8033,94.2578
140.8146,94.2225
140.8146,94.2222
140.8224,94.1573
140.8231,94.1529
140.8355,94.0884
140.8355,94.0513
140.8359,94.0440
140.8378,94.0281
140.8403,94.0071
140.8357,93.9417
140.8355,93.9372
140.8355,88.9000
142.0751,88.9000
142.0948,89.2260
142.1537,89.5473
142.2508,89.8592
142.2508,89.8592
142.3849,90.1570
142.3849,90.1570
142.5539,90.4366
142.7015,90.6250
143.8442,89.4822
143.9449,89.6236
144.0969,89.7686
144.1992,89.8343
143.0550,90.9785
143.0550,90.9785
143.2434,91.1261
143.2434,91.1261
143.5230,91.2951
143.5230,91.2951
143.8208,91.4292
143.8208,91.4292
144.1327,91.5263
144.4540,91.5852
144.7800,91.6049
145.1060,91.5852
145.4273,91.5263
145.7392,91.4292
145.7392,91.4292
146.0370,91.2951
146.0370,91.2951
146.3166,91.1261
146.3166,91.1261
146.5050,90.9785
146.5050,90.9785
145.3633,89.8369
145.3774,89.8296
145.5425,89.6997
145.6801,89.5410
145.7147,89.4811
146.8585,90.6250
146.8585,90.6250
147.0061,90.4366
147.0061,90.4366
147.1751,90.1570
147.1751,90.1570
147.3092,89.8592
147.3092,89.8592
147.4063,89.5473
147.4652,89.2260
147.4849,88.9000
147.4652,88.5740
147.4063,88.2527
147.3092,87.9408
147.3092,87.9408
147.1751,87.6430
147.1751,87.6430
147.0061,87.3634
147.0061,87.3634
146.8585,87.1750
145.7158,88.3178
145.6151,88.1764
145.4631,88.0314
145.3608,87.9657
146.5050,86.8215
146.5050,86.8215
146.3166,86.6739
146.0370,86.5049
146.0370,86.5049
145.7392,86.3708
145.7392,86.3708
145.4273,86.2737
145.1060,86.2148
144.7800,86.1951
144.4540,86.2148
144.1327,86.2737
143.8208,86.3708
143.8208,86.3708
143.5230,86.5049
143.5230,86.5049
143.2434,86.6739
143.0550,86.8215
143.0550,86.8215
144.1967,87.9631
144.1826,87.9704
144.0175,88.1003
143.8799,88.2590
143.8453,88.3189
142.7015,87.1750
142.7015,87.1750
142.5539,87.3634
142.3849,87.6430
142.3849,87.6430
142.2508,87.9408
142.2508,87.9408
142.1537,88.2527
142.0948,88.5740
142.0751,88.9000
140.8355,88.9000
140.8355,82.5395
140.8552,82.4725
140.9080,82.4267
140.9595,82.4155
142.2495,82.4155
142.3165,82.4352
142.3623,82.4880
142.3625,82.4886
142.3845,82.5373
142.5359,82.7878
142.5535,82.8169
142.7550,83.0740
142.9860,83.3050
143.2431,83.5065
143.2431,83.5065
143.2431,83.5065
143.5227,83.6755
143.8206,83.8096
143.8207,83.8096
143.8207,83.8096
144.0265,83.8738
144.1325,83.9068
144.4539,83.9657
144.7800,83.9854
145.1061,83.9657
145.4275,83.9068
145.7394,83.8096
146.0373,83.6755
146.3169,83.5065
146.5740,83.3050
146.8050,83.0740
147.0065,82.8169
147.1755,82.5373
147.3096,82.2394
147.4068,81.9275
147.4657,81.6061
147.4854,81.2800
147.4657,80.9539
147.4068,80.6325
147.3096,80.3207
147.3096,80.3207
147.3096,80.3206
147.1755,80.0227
147.0065,79.7431
147.0065,79.7431
147.0065,79.7431
146.8050,79.4860
146.5740,79.2550
146.3169,79.0535
146.2941,79.0397
146.0373,78.8845
145.7394,78.7504
145.7394,78.7504
145.7393,78.7504
145.4275,78.6532
145.1061,78.5943
144.7800,78.5746
144.4539,78.5943
144.1325,78.6532
143.8207,78.7504
143.8206,78.7504
143.8206,78.7504
143.8044,78.7577
143.5227,78.8845
143.5227,78.8845
143.2431,79.0535
142.9860,79.2550
142.7550,79.4860
142.5535,79.7431
142.3845,80.0227
142.3844,80.0227
142.3626,80.0714
142.3171,80.1244
142.2502,80.1445
142.2495,80.1445
140.9595,80.1445
140.8925,80.1248
140.8467,80.0720
140.8355,80.0205
140.8355,75.0441
140.8552,74.9770
140.8718,74.9564
142.1831,73.6451
143.5434,72.2848
143.6048,72.2513
143.6107,72.2501
143.8396,72.2120
144.0748,72.1312
144.2935,72.0129
144.4897,71.8601
144.6582,71.6772
144.7942,71.4690
144.8941,71.2413
144.9551,71.0002
144.9638,70.8949
144.9756,70.7524
144.9756,70.7524
144.9551,70.5046
144.9551,70.5046
144.8941,70.2635
144.7942,70.0358
144.6582,69.8276
144.6366,69.8041
144.4897,69.6446
144.2935,69.4919
144.2935,69.4919
144.2935,69.4919
144.0748,69.3736
144.0748,69.3735
143.8396,69.2928
143.5943,69.2519
143.3457,69.2519
143.1004,69.2928
142.8652,69.3735
142.8652,69.3736
142.6465,69.4919
142.4503,69.6446
142.2818,69.8276
142.1458,70.0358
142.0459,70.2635
141.9849,70.5046
141.9849,70.5046
141.9772,70.5978
141.9520,70.6630
141.9413,70.6753
138.9714,73.6451
138.9557,73.6584
138.9530,73.6603
138.9530,73.6603
138.8875,73.7290
138.8588,73.7577
138.8516,73.7664
138.8487,73.7698
138.8034,73.8173
138.8034,73.8173
138.7833,73.8485
138.7790,73.8544
138.7554,73.8830
138.7239,73.9407
138.7216,73.9445
138.6861,73.9997
138.6724,74.0341
138.6692,74.0408
138.6514,74.0734
138.6514,74.0734
138.6314,74.1359
138.6299,74.1401
138.6055,74.2010
138.6055,74.2010
138.5985,74.2374
138.5967,74.2446
138.5854,74.2799
138.5776,74.3451
138.5769,74.3495
138.5645,74.4140
138.5645,74.4510
138.5641,74.4584
138.5597,74.4952
138.5597,74.4952
138.5643,74.5607
138.5645,74.5652
138.5645,81.1899
138.5632,81.2076
138.5606,81.2257
138.5644,81.3056
138.5645,81.3085
138.5645,93.4583
138.5448,93.5253
138.5282,93.5460
138.3566,93.7176
138.2952,93.7511
138.2893,93.7522
138.0604,93.7904
137.8252,93.8712
137.8252,93.8712
137.6065,93.9895
137.4103,94.1423
137.2418,94.3252
137.1058,94.5334
137.0059,94.7611
136.9449,95.0022
136.9449,95.0022
136.9244,95.2500
136.9244,95.2500
132.4158,95.2500
136.5786,91.0873
136.5943,91.0739
136.5970,91.0721
136.6625,91.0034
136.6912,90.9747
136.6984,90.9659
136.7013,90.9626
136.7466,90.9151
136.7667,90.8839
136.7710,90.8780
136.7946,90.8494
136.8261,90.7917
136.8284,90.7879
136.8639,90.7327
136.8776,90.6983
136.8808,90.6916
136.8986,90.6590
136.9186,90.5964
136.9200,90.5923
136.9445,90.5314
136.9515,90.4949
136.9533,90.4878
136.9646,90.4525
136.9724,90.3873
136.9731,90.3829
136.9855,90.3184
136.9855,90.2813
136.9859,90.2740
136.9903,90.2371
136.9857,90.1717
136.9855,90.1672
136.9855,88.2928
137.0052,88.2257
137.0183,88.2088
137.0382,88.1872
137.1742,87.9790
137.2741,87.7513
137.3351,87.5102
137.3385,87.4688
137.3556,87.2624
137.3556,87.2624
137.3351,87.0146
137.3351,87.0146
137.2741,86.7735
137.1742,86.5458
137.0382,86.3376
136.9251,86.2148
136.8697,86.1546
136.6735,86.0019
136.6735,86.0019
136.6735,86.0019
136.4548,85.8836
136.4548,85.8835
136.2196,85.8028
135.9907,85.7646
135.9278,85.7342
135.9234,85.7300
133.2518,83.0584
133.2183,82.9970
133.2155,82.9707
133.2155,81.9428
133.2352,81.8757
133.2483,81.8588
133.2537,81.8529
133.2682,81.8372
133.4042,81.6290
133.5041,81.4013
133.5651,81.1602
133.5651,81.1602
133.5856,80.9124
133.5856,80.9124
133.5651,80.6646
133.5651,80.6646
133.5041,80.4235
133.4042,80.1958
133.2682,79.9876
133.1213,79.8280
133.0903,79.7654
133.0885,79.7440
133.0885,78.2678
133.0744,78.1246
133.0739,78.1196
133.0162,77.9295
133.0162,77.9295
133.0162,77.9295
132.9226,77.7543
132.9226,77.7543
132.7966,77.6007
132.6430,77.4747
132.6430,77.4747
132.4678,77.3811
132.3864,77.3564
132.3347,77.3254
132.1799,77.1706
132.1464,77.1093
132.1514,77.0396
132.1933,76.9836
132.2384,76.9624
132.2423,76.9614
132.2423,76.9614
132.3456,76.9364
132.3749,76.9329
132.5324,76.9329
132.5324,76.9329
132.6892,76.9179
132.8909,76.8587
133.0777,76.7624
133.0843,76.7572
133.1253,76.7249
133.2429,76.6325
133.3805,76.4736
133.4856,76.2916
133.5543,76.0930
133.5843,75.8850
133.5743,75.6751
133.5247,75.4708
133.4937,75.4028
133.4374,75.2796
133.4374,75.2796
133.3155,75.1084
133.3155,75.1084
133.2539,75.0497
133.2190,74.9892
133.2155,74.9600
133.2155,73.8141
133.2352,73.7470
133.2518,73.7264
133.9672,73.0111
134.6934,72.2848
134.7548,72.2513
134.7607,72.2501
134.9896,72.2120
135.2248,72.1312
135.4435,72.0129
135.5212,71.9523
135.5705,71.9140
135.6355,71.8884
135.6466,71.8879
137.4434,71.8879
137.5104,71.9076
137.5195,71.9140
137.6465,72.0129
137.6465,72.0129
137.8643,72.1307
137.8652,72.1312
138.0841,72.2064
138.0990,72.2115
138.1004,72.2120
138.3457,72.2529
138.5943,72.2529
138.8396,72.2120
139.0748,72.1312
139.2935,72.0129
139.4897,71.8601
139.6582,71.6772
139.7942,71.4690
139.8941,71.2413
139.9551,71.0002
139.9638,70.8949
139.9756,70.7524
139.9756,70.7524
139.9551,70.5046
139.9551,70.5046
139.8941,70.2635
139.7942,70.0358
139.6582,69.8276
139.6366,69.8041
139.4897,69.6446
139.2935,69.4919
139.2935,69.4919
139.2935,69.4919
139.0748,69.3736
139.0748,69.3735
138.8396,69.2928
138.5943,69.2519
138.3457,69.2519
138.1004,69.2928
137.8652,69.3735
137.8652,69.3736
137.6465,69.4919
137.6465,69.4919
137.5195,69.5907
137.4545,69.6164
137.4434,69.6169
135.6466,69.6169
135.5796,69.5972
135.5705,69.5907
135.4435,69.4919
135.4435,69.4919
135.2248,69.3736
135.2248,69.3735
134.9896,69.2928
134.7443,69.2519
134.4957,69.2519
134.2504,69.2928
134.0152,69.3735
134.0152,69.3736
133.7965,69.4919
133.6003,69.6446
133.4318,69.8276
133.2958,70.0358
133.1959,70.2635
133.1349,70.5046
133.1349,70.5046
133.1272,70.5978
133.1020,70.6630
133.0913,70.6753
131.3514,72.4151
131.3357,72.4284
131.3330,72.4303
131.2675,72.4990
131.2388,72.5277
131.2316,72.5364
131.2287,72.5398
131.1834,72.5873
131.1834,72.5873
131.1633,72.6185
131.1590,72.6244
131.1354,72.6530
131.1039,72.7107
131.1016,72.7145
131.0661,72.7697
131.0524,72.8041
131.0492,72.8108
131.0314,72.8434
131.0314,72.8434
131.0114,72.9059
131.0099,72.9101
130.9855,72.9710
130.9855,72.9710
130.9785,73.0074
130.9767,73.0146
130.9654,73.0499
130.9576,73.1151
130.9569,73.1195
130.9445,73.1840
130.9445,73.2210
130.9441,73.2284
130.9397,73.2652
130.9397,73.2652
130.9443,73.3307
130.9445,73.3351
130.9445,74.9544
130.9248,75.0215
130.9142,75.0356
130.7795,75.1911
130.6744,75.3731
130.6641,75.4028
130.6236,75.4597
130.5587,75.4857
130.4901,75.4725
130.4593,75.4499
128.4459,73.4366
128.4149,73.3849
128.3902,73.3035
128.3902,73.3035
128.2966,73.1283
128.2966,73.1283
128.1706,72.9747
128.0170,72.8487
128.0170,72.8487
127.8418,72.7551
127.7185,72.7176
127.6517,72.6974
127.6517,72.6974
127.6517,72.6974
127.5373,72.6861
127.5035,72.6828
127.5035,72.6828
124.3225,72.6828
124.2555,72.6631
124.2097,72.6103
124.1985,72.5588
124.1985,71.9207
124.2182,71.8537
124.2313,71.8367
124.3782,71.6772
124.5142,71.4690
124.6141,71.2413
124.6746,71.0024
125.5160,71.0024
125.5764,71.2411
125.6763,71.4687
125.8122,71.6769
125.9806,71.8597
125.9806,71.8598
126.1768,72.0124
126.1768,72.0124
126.3954,72.1307
126.3954,72.1307
126.6305,72.2115
126.7500,72.2314
126.7500,72.2314
126.7500,71.0024
125.5160,71.0024
124.6746,71.0024
124.6751,71.0002
124.6838,70.8949
124.6932,70.7817
126.6464,70.7817
126.6750,70.8949
126.7389,70.9927
126.8311,71.0645
126.9416,71.1024
127.0290,71.1024
127.1152,71.0880
127.2179,71.0324
127.2456,71.0024
127.2500,71.0024
127.2500,72.2314
127.3695,72.2115
127.6046,72.1307
127.6046,72.1307
127.8232,72.0124
127.8232,72.0124
128.0194,71.8598
128.0194,71.8597
128.1878,71.6769
128.3237,71.4687
128.4236,71.2411
128.4840,71.0024
127.2500,71.0024
127.2456,71.0024
127.2971,70.9465
127.3440,70.8395
127.3536,70.7231
127.3250,70.6098
127.2611,70.5121
127.1689,70.4403
127.0584,70.4024
126.9710,70.4024
126.8848,70.4168
126.7821,70.4724
126.7029,70.5583
126.6560,70.6653
126.6464,70.7817
124.6932,70.7817
124.6956,70.7524
124.6956,70.7524
124.6751,70.5046
124.6751,70.5046
124.6746,70.5024
125.5160,70.5024
126.7500,70.5024
126.7500,69.2734
127.2500,69.2734
127.2500,70.5024
128.4840,70.5024
128.4236,70.2637
128.3237,70.0360
128.1878,69.8279
128.0194,69.6450
128.0194,69.6450
127.8232,69.4923
127.8232,69.4923
127.6046,69.3740
127.6046,69.3740
127.3695,69.2933
127.2500,69.2734
126.7500,69.2734
126.7500,69.2734
126.6305,69.2933
126.3954,69.3740
126.3954,69.3740
126.1768,69.4923
126.1768,69.4923
125.9806,69.6450
125.9806,69.6450
125.8122,69.8279
125.6763,70.0360
125.5764,70.2637
125.5160,70.5024
124.6746,70.5024
124.6141,70.2635
124.5142,70.0358
124.3782,69.8276
124.3566,69.8041
124.2097,69.6446
124.0135,69.4919
124.0135,69.4919
124.0135,69.4919
123.7948,69.3736
123.7948,69.3735
123.5596,69.2928
123.3307,69.2546
123.2678,69.2242
123.2634,69.2200
123.0673,69.0238
123.0540,69.0081
123.0521,69.0054
123.0251,68.9797
122.9834,68.9399
122.9547,68.9112
122.9547,68.9112
122.9459,68.9040
122.9426,68.9011
122.8951,68.8558
122.8951,68.8558
122.8643,68.8360
122.8639,68.8357
122.8580,68.8314
122.8294,68.8077
122.8294,68.8077
122.7717,68.7763
122.7679,68.7740
122.7541,68.7652
122.7127,68.7385
122.7127,68.7385
122.6782,68.7247
122.6716,68.7216
122.6390,68.7038
122.6390,68.7038
122.6390,68.7038
122.6275,68.7001
122.5765,68.6838
122.5723,68.6823
122.5114,68.6579
122.5114,68.6579
122.4749,68.6509
122.4678,68.6491
122.4325,68.6378
122.3673,68.6300
122.3629,68.6293
122.2984,68.6169
122.2984,68.6169
122.2613,68.6169
122.2540,68.6164
122.2171,68.6120
122.2171,68.6120
122.1517,68.6167
122.1472,68.6169
115.4852,68.6169
115.4646,68.6152
115.4614,68.6146
115.4614,68.6146
115.3981,68.6161
115.3665,68.6169
115.3259,68.6169
115.3146,68.6180
115.3102,68.6182
115.2446,68.6198
115.2083,68.6277
115.2010,68.6288
115.1958,68.6293
115.1641,68.6323
115.1641,68.6323
115.1011,68.6508
115.0968,68.6519
115.0327,68.6659
115.0327,68.6659
114.9986,68.6805
114.9916,68.6830
114.9814,68.6860
114.9561,68.6934
114.8977,68.7235
114.8937,68.7254
114.8333,68.7512
114.8026,68.7720
114.7963,68.7758
114.7633,68.7928
114.7117,68.8334
114.7081,68.8360
114.6538,68.8728
114.6275,68.8990
114.6220,68.9039
114.5929,68.9268
114.5929,68.9268
114.5499,68.9765
114.5468,68.9797
113.6514,69.8751
113.6357,69.8884
113.6330,69.8903
113.5675,69.9590
113.5388,69.9877
113.5316,69.9964
113.5287,69.9998
113.4834,70.0473
113.4834,70.0473
113.4633,70.0785
113.4590,70.0844
113.4354,70.1130
113.4039,70.1707
113.4016,70.1745
113.3661,70.2297
113.3524,70.2641
113.3492,70.2708
113.3314,70.3034
113.3314,70.3034
113.3114,70.3659
113.3099,70.3701
113.2855,70.4310
113.2855,70.4310
113.2785,70.4674
113.2767,70.4746
113.2654,70.5099
113.2576,70.5751
113.2569,70.5795
113.2445,70.6440
113.2445,70.6810
113.2441,70.6884
113.2397,70.7252
113.2397,70.7252
113.2443,70.7907
113.2445,70.7951
113.2445,71.1305
113.2248,71.1975
113.1720,71.2433
113.1205,71.2545
111.3793,71.2545
111.3123,71.2348
111.2916,71.2182
110.7487,70.6753
110.7152,70.6140
110.7128,70.5978
110.7051,70.5046
110.6705,70.3680
110.6441,70.2635
110.5442,70.0358
110.4082,69.8276
110.3866,69.8041
110.2397,69.6446
110.0435,69.4919
110.0435,69.4919
110.0435,69.4919
109.8248,69.3736
109.8248,69.3735
109.5896,69.2928
109.3443,69.2519
109.0957,69.2519
108.8504,69.2928
108.6152,69.3735
108.6152,69.3736
108.3965,69.4919
108.2003,69.6446
108.0318,69.8276
107.8958,70.0358
107.7959,70.2635
107.7349,70.5046
107.7349,70.5046
107.7144,70.7524
107.7144,70.7524
107.7349,71.0002
107.7349,71.0002
107.7959,71.2413
107.8958,71.4690
108.0318,71.6772
108.0318,71.6772
108.2003,71.8601
108.3965,72.0129
108.3965,72.0129
108.6143,72.1307
108.6152,72.1312
108.8341,72.2064
108.8490,72.2115
108.8504,72.2120
109.0793,72.2501
109.1422,72.2806
109.1466,72.2848
109.5724,72.7107
109.9803,73.1186
109.9937,73.1343
109.9956,73.1370
110.0321,73.1719
110.0642,73.2025
110.0929,73.2312
110.0930,73.2312
110.0969,73.2345
110.1017,73.2384
110.1050,73.2413
110.1525,73.2866
110.1692,73.2974
110.1787,73.3035
110.1837,73.3067
110.1896,73.3110
110.2183,73.3346
110.2759,73.3661
110.2797,73.3684
110.3349,73.4039
110.3694,73.4177
110.3760,73.4208
110.4086,73.4386
110.4712,73.4586
110.4753,73.4601
110.5363,73.4845
110.5727,73.4915
110.5798,73.4933
110.6152,73.5046
110.6152,73.5046
110.6152,73.5046
110.6443,73.5081
110.6804,73.5124
110.6847,73.5131
110.7492,73.5255
110.7863,73.5255
110.7936,73.5259
110.7971,73.5264
110.8305,73.5303
110.8960,73.5257
110.9004,73.5255
113.3534,73.5255
113.4204,73.5452
113.4295,73.5516
113.5565,73.6505
113.5565,73.6505
113.7743,73.7684
113.7752,73.7688
113.9163,73.8173
114.0090,73.8491
114.0104,73.8496
114.0192,73.8510
114.0237,73.8518
114.0866,73.8822
114.0910,73.8864
114.2712,74.0666
114.3047,74.1279
114.3075,74.1543
114.3075,78.1557
114.2878,78.2227
114.2712,78.2434
114.0514,78.4632
113.9900,78.4967
113.9637,78.4995
113.2521,78.4995
113.2521,78.4995
113.1925,78.5059
113.0577,78.5562
113.0577,78.5562
112.9425,78.6425
112.9425,78.6425
112.8562,78.7577
112.8562,78.7577
112.8059,78.8925
112.7995,78.9521
112.7995,78.9521
112.7995,81.0479
112.7995,81.0479
112.8059,81.1075
112.8562,81.2423
112.8562,81.2423
112.9425,81.3575
112.9425,81.3575
113.0577,81.4438
113.0577,81.4438
113.1925,81.4941
113.1925,81.4941
113.1994,81.4948
113.2521,81.5005
115.3479,81.5005
115.4075,81.4941
115.4817,81.4664
115.5514,81.4614
115.6127,81.4949
115.6462,81.5562
115.6412,81.6259
115.6288,81.6504
115.5158,81.8234
115.4159,82.0511
115.3549,82.2922
115.3549,82.2922
115.3344,82.5400
115.3344,82.5400
115.3549,82.7878
115.3549,82.7878
115.4159,83.0289
115.5158,83.2566
115.5573,83.3201
115.5775,83.3870
115.5775,83.3879
115.5775,83.9345
115.5578,84.0015
115.5050,84.0473
115.4359,84.0572
115.3723,84.0282
115.3623,84.0185
115.3197,83.9723
115.3197,83.9723
115.2609,83.9265
115.1235,83.8195
115.1235,83.8195
115.1235,83.8195
114.9048,83.7012
114.9048,83.7012
114.6696,83.6204
114.4243,83.5795
114.1757,83.5795
113.9304,83.6204
113.6952,83.7012
113.6952,83.7012
113.4765,83.8195
113.2803,83.9723
113.1118,84.1552
112.9758,84.3634
112.8759,84.5911
112.8149,84.8322
112.8149,84.8322
112.7944,85.0800
112.7944,85.0800
112.8149,85.3278
112.8149,85.3278
112.8759,85.5689
112.9758,85.7966
113.0173,85.8601
113.0375,85.9270
113.0375,85.9279
113.0375,88.0521
113.0178,88.1191
113.0173,88.1199
112.9758,88.1834
112.9038,88.3475
112.8759,88.4111
112.8428,88.5419
112.8349,88.5733
112.7993,88.6335
112.7369,88.6649
112.7147,88.6669
110.2466,88.6669
110.1796,88.6472
110.1705,88.6407
110.0435,88.5419
110.0435,88.5419
109.8248,88.4236
109.8248,88.4235
109.5896,88.3428
109.3443,88.3019
109.0957,88.3019
108.8504,88.3428
108.6152,88.4235
108.6152,88.4236
108.3965,88.5419
108.2003,88.6946
108.0318,88.8776
107.8958,89.0858
107.7959,89.3135
107.7349,89.5546
107.7349,89.5546
107.7144,89.8024
107.7144,89.8024
106.5796,89.8024
106.5796,82.1824
107.7144,82.1824
107.7349,82.4302
107.7349,82.4302
107.7959,82.6713
107.8958,82.8990
108.0318,83.1072
108.0318,83.1072
108.2003,83.2901
108.3965,83.4429
108.3965,83.4429
108.6088,83.5577
108.6152,83.5612
108.8504,83.6420
109.0957,83.6829
109.3443,83.6829
109.5896,83.6420
109.8248,83.5612
110.0435,83.4429
110.2397,83.2901
110.4082,83.1072
110.5442,82.8990
110.6441,82.6713
110.7051,82.4302
110.7054,82.4267
110.7256,82.1824
110.7256,82.1824
110.7051,81.9346
110.7051,81.9346
110.6441,81.6935
110.5442,81.4658
110.4735,81.3575
110.4082,81.2576
110.3883,81.2360
110.3573,81.1733
110.3555,81.1520
110.3555,79.4028
110.3752,79.3357
110.3883,79.3188
110.4082,79.2972
110.5442,79.0890
110.6441,78.8613
110.7051,78.6202
110.7128,78.5269
110.7380,78.4617
110.7487,78.4495
111.8334,77.3648
111.8948,77.3313
111.9007,77.3301
112.1296,77.2920
112.3648,77.2112
112.5835,77.0929
112.7797,76.9401
112.9482,76.7572
113.0842,76.5490
113.1841,76.3213
113.2451,76.0802
113.2584,75.9195
113.2656,75.8324
113.2656,75.8324
113.2451,75.5846
113.2451,75.5846
113.1841,75.3435
113.0842,75.1158
112.9482,74.9076
112.9266,74.8841
112.7797,74.7246
112.5835,74.5719
112.5835,74.5719
112.5835,74.5719
112.3648,74.4536
112.3648,74.4535
112.1296,74.3728
111.8843,74.3319
111.6357,74.3319
111.3904,74.3728
111.1552,74.4535
111.1552,74.4536
110.9365,74.5719
110.7403,74.7246
110.5718,74.9076
110.4358,75.1158
110.3359,75.3435
110.2749,75.5846
110.2749,75.5846
110.2672,75.6778
110.2420,75.7430
110.2313,75.7553
109.1466,76.8400
109.0852,76.8735
109.0793,76.8746
108.8504,76.9128
108.6152,76.9935
108.6152,76.9936
108.3965,77.1119
108.2003,77.2646
108.0318,77.4476
107.8958,77.6558
107.7959,77.8835
107.7349,78.1246
107.7349,78.1246
107.7144,78.3724
107.7144,78.3724
107.7349,78.6202
107.7349,78.6202
107.7959,78.8613
107.8958,79.0890
108.0206,79.2800
108.0318,79.2972
108.0517,79.3188
108.0827,79.3814
108.0845,79.4028
108.0845,81.1520
108.0648,81.2190
108.0517,81.2360
108.0318,81.2576
107.8958,81.4658
107.7959,81.6935
107.7349,81.9346
107.7349,81.9346
107.7144,82.1824
107.7144,82.1824
106.5796,82.1824
106.5796,67.9145
106.5992,67.8475
106.6521,67.8017
106.7036,67.7905
148.3656,67.7905
Z" /> 
</g>
</g>
<g style="fill:#000000; fill-opacity:1.0000; 
stroke:#000000; stroke-width:0.0000; stroke-opacity:1; 
stroke-linecap:round; stroke-linejoin:round;">
<g >
<path style="fill:#000000; fill-opacity:1.0000; 
stroke:#000000; stroke-width:0.0000; stroke-opacity:1; 
stroke-linecap:round; stroke-linejoin:round;fill-rule:evenodd;"
d="M 103.9962,67.8113
104.0633,67.8310
104.1090,67.8838
104.1202,67.9352
104.1399,98.9354
104.1203,99.0025
104.0675,99.0483
104.0159,99.0595
101.5272,99.0595
58.8427,99.0513
58.7756,99.0316
58.7299,98.9788
58.7187,98.9274
58.6990,67.9267
58.7186,67.8597
58.7714,67.8139
58.8230,67.8027
Z" /> 
</g>
</g>
</g>
<g style="fill:#FFFFFF; fill-opacity:1.0000; 
stroke:#FFFFFF; stroke-width:0.0000; stroke-opacity:1; 
stroke-linecap:round; stroke-linejoin:round;">
<circle cx="144.7800" cy="88.9000" r="1.1000" /> 
</g>
<g style="fill:#FFFFFF; fill-opacity:1.0000; 
stroke:#FFFFFF; stroke-width:0.0212; stroke-opacity:1; 
stroke-linecap:round; stroke-linejoin:round;">
</g>
<g style="fill:#FFFFFF; fill-opacity:1.0000; 
stroke:#FFFFFF; stroke-width:0.0000; stroke-opacity:1; 
stroke-linecap:round; stroke-linejoin:round;">
<circle cx="135.8500" cy="87.2624" r="0.4000" /> 
</g>
<g style="fill:#FFFFFF; fill-opacity:1.0000; 
stroke:#FFFFFF; stroke-width:0.0212; stroke-opacity:1; 
stroke-linecap:round; stroke-linejoin:round;">
</g>
<g style="fill:#FFFFFF; fill-opacity:1.0000; 
stroke:#FFFFFF; stroke-width:0.0000; stroke-opacity:1; 
stroke-linecap:round; stroke-linejoin:round;">
<circle cx="130.8500" cy="87.2624" r="0.4000" /> 
</g>
<g style="fill:#FFFFFF; fill-opacity:1.0000; 
stroke:#FFFFFF; stroke-width:0.0212; stroke-opacity:1; 
stroke-linecap:round; stroke-linejoin:round;">
</g>
<g style="fill:#FFFFFF; fill-opacity:1.0000; 
stroke:#FFFFFF; stroke-width:0.0000; stroke-opacity:1; 
stroke-linecap:round; stroke-linejoin:round;">
<circle cx="114.3000" cy="96.5200" r="0.5000" /> 
</g>
<g style="fill:#FFFFFF; fill-opacity:1.0000; 
stroke:#FFFFFF; stroke-width:0.0212; stroke-opacity:1; 
stroke-linecap:round; stroke-linejoin:round;">
</g>
<g style="fill:#FFFFFF; fill-opacity:1.0000; 
stroke:#FFFFFF; stroke-width:0.0000; stroke-opacity:1; 
stroke-linecap:round; stroke-linejoin:round;">
<circle cx="114.3000" cy="88.9000" r="0.5000" /> 
</g>
<g style="fill:#FFFFFF; fill-opacity:1.0000; 
stroke:#FFFFFF; stroke-width:0.0212; stroke-opacity:1; 
stroke-linecap:round; stroke-linejoin:round;">
</g>
<g style="fill:#FFFFFF; fill-opacity:1.0000; 
stroke:#FFFFFF; stroke-width:0.0000; stroke-opacity:1; 
stroke-linecap:round; stroke-linejoin:round;">
<circle cx="110.4900" cy="95.2500" r="0.5000" /> 
</g>
<g style="fill:#FFFFFF; fill-opacity:1.0000; 
stroke:#FFFFFF; stroke-width:0.0212; stroke-opacity:1; 
stroke-linecap:round; stroke-linejoin:round;">
</g>
<g style="fill:#FFFFFF; fill-opacity:1.0000; 
stroke:#FFFFFF; stroke-width:0.0000; stroke-opacity:1; 
stroke-linecap:round; stroke-linejoin:round;">
<circle cx="114.3000" cy="80.0000" r="0.4000" /> 
</g>
<g style="fill:#FFFFFF; fill-opacity:1.0000; 
stroke:#FFFFFF; stroke-width:0.0212; stroke-opacity:1; 
stroke-linecap:round; stroke-linejoin:round;">
</g>
<g style="fill:#FFFFFF; fill-opacity:1.0000; 
stroke:#FFFFFF; stroke-width:0.0000; stroke-opacity:1; 
stroke-linecap:round; stroke-linejoin:round;">
<circle cx="116.8400" cy="82.5400" r="0.4000" /> 
</g>
<g style="fill:#FFFFFF; fill-opacity:1.0000; 
stroke:#FFFFFF; stroke-width:0.0212; stroke-opacity:1; 
stroke-linecap:round; stroke-linejoin:round;">
</g>
<g style="fill:#FFFFFF; fill-opacity:1.0000; 
stroke:#FFFFFF; stroke-width:0.0000; stroke-opacity:1; 
stroke-linecap:round; stroke-linejoin:round;">
<circle cx="114.3000" cy="85.0800" r="0.4000" /> 
</g>
<g style="fill:#FFFFFF; fill-opacity:1.0000; 
stroke:#FFFFFF; stroke-width:0.0212; stroke-opacity:1; 
stroke-linecap:round; stroke-linejoin:round;">
</g>
<g style="fill:#FFFFFF; fill-opacity:1.0000; 
stroke:#FFFFFF; stroke-width:0.0000; stroke-opacity:1; 
stroke-linecap:round; stroke-linejoin:round;">
<circle cx="119.8312" cy="91.1243" r="0.3500" /> 
</g>
<g style="fill:#FFFFFF; fill-opacity:1.0000; 
stroke:#FFFFFF; stroke-width:0.0212; stroke-opacity:1; 
stroke-linecap:round; stroke-linejoin:round;">
</g>
<g style="fill:#FFFFFF; fill-opacity:1.0000; 
stroke:#FFFFFF; stroke-width:0.0000; stroke-opacity:1; 
stroke-linecap:round; stroke-linejoin:round;">
<circle cx="127.4512" cy="91.1243" r="0.3500" /> 
</g>
<g style="fill:#FFFFFF; fill-opacity:1.0000; 
stroke:#FFFFFF; stroke-width:0.0212; stroke-opacity:1; 
stroke-linecap:round; stroke-linejoin:round;">
</g>
<g style="fill:#FFFFFF; fill-opacity:1.0000; 
stroke:#FFFFFF; stroke-width:0.0000; stroke-opacity:1; 
stroke-linecap:round; stroke-linejoin:round;">
<circle cx="120.6900" cy="82.1824" r="0.4000" /> 
</g>
<g style="fill:#FFFFFF; fill-opacity:1.0000; 
stroke:#FFFFFF; stroke-width:0.0212; stroke-opacity:1; 
stroke-linecap:round; stroke-linejoin:round;">
</g>
<g style="fill:#FFFFFF; fill-opacity:1.0000; 
stroke:#FFFFFF; stroke-width:0.0000; stroke-opacity:1; 
stroke-linecap:round; stroke-linejoin:round;">
<circle cx="125.6900" cy="82.1824" r="0.4000" /> 
</g>
<g style="fill:#FFFFFF; fill-opacity:1.0000; 
stroke:#FFFFFF; stroke-width:0.0212; stroke-opacity:1; 
stroke-linecap:round; stroke-linejoin:round;">
</g>
<g style="fill:#FFFFFF; fill-opacity:1.0000; 
stroke:#FFFFFF; stroke-width:0.0000; stroke-opacity:1; 
stroke-linecap:round; stroke-linejoin:round;">
<circle cx="123.1900" cy="70.7524" r="0.3500" /> 
</g>
<g style="fill:#FFFFFF; fill-opacity:1.0000; 
stroke:#FFFFFF; stroke-width:0.0212; stroke-opacity:1; 
stroke-linecap:round; stroke-linejoin:round;">
</g>
<g style="fill:#FFFFFF; fill-opacity:1.0000; 
stroke:#FFFFFF; stroke-width:0.0000; stroke-opacity:1; 
stroke-linecap:round; stroke-linejoin:round;">
<circle cx="123.1900" cy="78.3724" r="0.3500" /> 
</g>
<g style="fill:#FFFFFF; fill-opacity:1.0000; 
stroke:#FFFFFF; stroke-width:0.0212; stroke-opacity:1; 
stroke-linecap:round; stroke-linejoin:round;">
</g>
<g style="fill:#FFFFFF; fill-opacity:1.0000; 
stroke:#FFFFFF; stroke-width:0.0000; stroke-opacity:1; 
stroke-linecap:round; stroke-linejoin:round;">
<circle cx="119.3800" cy="72.3900" r="0.4000" /> 
</g>
<g style="fill:#FFFFFF; fill-opacity:1.0000; 
stroke:#FFFFFF; stroke-width:0.0212; stroke-opacity:1; 
stroke-linecap:round; stroke-linejoin:round;">
</g>
<g style="fill:#FFFFFF; fill-opacity:1.0000; 
stroke:#FFFFFF; stroke-width:0.0000; stroke-opacity:1; 
stroke-linecap:round; stroke-linejoin:round;">
<circle cx="114.3800" cy="72.3900" r="0.4000" /> 
</g>
<g style="fill:#FFFFFF; fill-opacity:1.0000; 
stroke:#FFFFFF; stroke-width:0.0212; stroke-opacity:1; 
stroke-linecap:round; stroke-linejoin:round;">
</g>
<g style="fill:#FFFFFF; fill-opacity:1.0000; 
stroke:#FFFFFF; stroke-width:0.0000; stroke-opacity:1; 
stroke-linecap:round; stroke-linejoin:round;">
<circle cx="119.8312" cy="87.3143" r="0.3500" /> 
</g>
<g style="fill:#FFFFFF; fill-opacity:1.0000; 
stroke:#FFFFFF; stroke-width:0.0212; stroke-opacity:1; 
stroke-linecap:round; stroke-linejoin:round;">
</g>
<g style="fill:#FFFFFF; fill-opacity:1.0000; 
stroke:#FFFFFF; stroke-width:0.0000; stroke-opacity:1; 
stroke-linecap:round; stroke-linejoin:round;">
<circle cx="127.4512" cy="87.3143" r="0.3500" /> 
</g>
<g style="fill:#FFFFFF; fill-opacity:1.0000; 
stroke:#FFFFFF; stroke-width:0.0212; stroke-opacity:1; 
stroke-linecap:round; stroke-linejoin:round;">
</g>
<g style="fill:#FFFFFF; fill-opacity:1.0000; 
stroke:#FFFFFF; stroke-width:0.0000; stroke-opacity:1; 
stroke-linecap:round; stroke-linejoin:round;">
<circle cx="132.0800" cy="75.8324" r="0.3500" /> 
</g>
<g style="fill:#FFFFFF; fill-opacity:1.0000; 
stroke:#FFFFFF; stroke-width:0.0212; stroke-opacity:1; 
stroke-linecap:round; stroke-linejoin:round;">
</g>
<g style="fill:#FFFFFF; fill-opacity:1.0000; 
stroke:#FFFFFF; stroke-width:0.0000; stroke-opacity:1; 
stroke-linecap:round; stroke-linejoin:round;">
<circle cx="129.5400" cy="78.3724" r="0.3500" /> 
</g>
<g style="fill:#FFFFFF; fill-opacity:1.0000; 
stroke:#FFFFFF; stroke-width:0.0212; stroke-opacity:1; 
stroke-linecap:round; stroke-linejoin:round;">
</g>
<g style="fill:#FFFFFF; fill-opacity:1.0000; 
stroke:#FFFFFF; stroke-width:0.0000; stroke-opacity:1; 
stroke-linecap:round; stroke-linejoin:round;">
<circle cx="132.0800" cy="80.9124" r="0.3500" /> 
</g>
<g style="fill:#FFFFFF; fill-opacity:1.0000; 
stroke:#FFFFFF; stroke-width:0.0212; stroke-opacity:1; 
stroke-linecap:round; stroke-linejoin:round;">
</g>
<g style="fill:#FFFFFF; fill-opacity:1.0000; 
stroke:#FFFFFF; stroke-width:0.0000; stroke-opacity:1; 
stroke-linecap:round; stroke-linejoin:round;">
<circle cx="130.8100" cy="95.2500" r="0.5000" /> 
</g>
<g style="fill:#FFFFFF; fill-opacity:1.0000; 
stroke:#FFFFFF; stroke-width:0.0212; stroke-opacity:1; 
stroke-linecap:round; stroke-linejoin:round;">
</g>
<g style="fill:#FFFFFF; fill-opacity:1.0000; 
stroke:#FFFFFF; stroke-width:0.0000; stroke-opacity:1; 
stroke-linecap:round; stroke-linejoin:round;">
<circle cx="138.4300" cy="95.2500" r="0.5000" /> 
</g>
<g style="fill:#FFFFFF; fill-opacity:1.0000; 
stroke:#FFFFFF; stroke-width:0.0212; stroke-opacity:1; 
stroke-linecap:round; stroke-linejoin:round;">
</g>
<g style="fill:#FFFFFF; fill-opacity:1.0000; 
stroke:#FFFFFF; stroke-width:0.0000; stroke-opacity:1; 
stroke-linecap:round; stroke-linejoin:round;">
<circle cx="111.7600" cy="75.8324" r="0.3500" /> 
</g>
<g style="fill:#FFFFFF; fill-opacity:1.0000; 
stroke:#FFFFFF; stroke-width:0.0212; stroke-opacity:1; 
stroke-linecap:round; stroke-linejoin:round;">
</g>
<g style="fill:#FFFFFF; fill-opacity:1.0000; 
stroke:#FFFFFF; stroke-width:0.0000; stroke-opacity:1; 
stroke-linecap:round; stroke-linejoin:round;">
<circle cx="119.3800" cy="75.8324" r="0.3500" /> 
</g>
<g style="fill:#FFFFFF; fill-opacity:1.0000; 
stroke:#FFFFFF; stroke-width:0.0212; stroke-opacity:1; 
stroke-linecap:round; stroke-linejoin:round;">
</g>
<g style="fill:#FFFFFF; fill-opacity:1.0000; 
stroke:#FFFFFF; stroke-width:0.0000; stroke-opacity:1; 
stroke-linecap:round; stroke-linejoin:round;">
<circle cx="109.2200" cy="89.8024" r="0.3500" /> 
</g>
<g style="fill:#FFFFFF; fill-opacity:1.0000; 
stroke:#FFFFFF; stroke-width:0.0212; stroke-opacity:1; 
stroke-linecap:round; stroke-linejoin:round;">
</g>
<g style="fill:#FFFFFF; fill-opacity:1.0000; 
stroke:#FFFFFF; stroke-width:0.0000; stroke-opacity:1; 
stroke-linecap:round; stroke-linejoin:round;">
<circle cx="109.2200" cy="82.1824" r="0.3500" /> 
</g>
<g style="fill:#FFFFFF; fill-opacity:1.0000; 
stroke:#FFFFFF; stroke-width:0.0212; stroke-opacity:1; 
stroke-linecap:round; stroke-linejoin:round;">
</g>
<g style="fill:#FFFFFF; fill-opacity:1.0000; 
stroke:#FFFFFF; stroke-width:0.0000; stroke-opacity:1; 
stroke-linecap:round; stroke-linejoin:round;">
<circle cx="138.4700" cy="70.7524" r="0.4000" /> 
</g>
<g style="fill:#FFFFFF; fill-opacity:1.0000; 
stroke:#FFFFFF; stroke-width:0.0212; stroke-opacity:1; 
stroke-linecap:round; stroke-linejoin:round;">
</g>
<g style="fill:#FFFFFF; fill-opacity:1.0000; 
stroke:#FFFFFF; stroke-width:0.0000; stroke-opacity:1; 
stroke-linecap:round; stroke-linejoin:round;">
<circle cx="143.4700" cy="70.7524" r="0.4000" /> 
</g>
<g style="fill:#FFFFFF; fill-opacity:1.0000; 
stroke:#FFFFFF; stroke-width:0.0212; stroke-opacity:1; 
stroke-linecap:round; stroke-linejoin:round;">
</g>
<g style="fill:#FFFFFF; fill-opacity:1.0000; 
stroke:#FFFFFF; stroke-width:0.0000; stroke-opacity:1; 
stroke-linecap:round; stroke-linejoin:round;">
<circle cx="109.2200" cy="70.7524" r="0.3500" /> 
</g>
<g style="fill:#FFFFFF; fill-opacity:1.0000; 
stroke:#FFFFFF; stroke-width:0.0212; stroke-opacity:1; 
stroke-linecap:round; stroke-linejoin:round;">
</g>
<g style="fill:#FFFFFF; fill-opacity:1.0000; 
stroke:#FFFFFF; stroke-width:0.0000; stroke-opacity:1; 
stroke-linecap:round; stroke-linejoin:round;">
<circle cx="109.2200" cy="78.3724" r="0.3500" /> 
</g>
<g style="fill:#FFFFFF; fill-opacity:1.0000; 
stroke:#FFFFFF; stroke-width:0.0212; stroke-opacity:1; 
stroke-linecap:round; stroke-linejoin:round;">
</g>
<g style="fill:#FFFFFF; fill-opacity:1.0000; 
stroke:#FFFFFF; stroke-width:0.0000; stroke-opacity:1; 
stroke-linecap:round; stroke-linejoin:round;">
<circle cx="119.8312" cy="94.9343" r="0.3500" /> 
</g>
<g style="fill:#FFFFFF; fill-opacity:1.0000; 
stroke:#FFFFFF; stroke-width:0.0212; stroke-opacity:1; 
stroke-linecap:round; stroke-linejoin:round;">
</g>
<g style="fill:#FFFFFF; fill-opacity:1.0000; 
stroke:#FFFFFF; stroke-width:0.0000; stroke-opacity:1; 
stroke-linecap:round; stroke-linejoin:round;">
<circle cx="127.4512" cy="94.9343" r="0.3500" /> 
</g>
<g style="fill:#FFFFFF; fill-opacity:1.0000; 
stroke:#FFFFFF; stroke-width:0.0212; stroke-opacity:1; 
stroke-linecap:round; stroke-linejoin:round;">
</g>
<g style="fill:#FFFFFF; fill-opacity:1.0000; 
stroke:#FFFFFF; stroke-width:0.0000; stroke-opacity:1; 
stroke-linecap:round; stroke-linejoin:round;">
<circle cx="134.6200" cy="70.7524" r="0.3500" /> 
</g>
<g style="fill:#FFFFFF; fill-opacity:1.0000; 
stroke:#FFFFFF; stroke-width:0.0212; stroke-opacity:1; 
stroke-linecap:round; stroke-linejoin:round;">
</g>
<g style="fill:#FFFFFF; fill-opacity:1.0000; 
stroke:#FFFFFF; stroke-width:0.0000; stroke-opacity:1; 
stroke-linecap:round; stroke-linejoin:round;">
<circle cx="127.0000" cy="70.7524" r="0.3500" /> 
</g>
<g style="fill:#FFFFFF; fill-opacity:1.0000; 
stroke:#FFFFFF; stroke-width:0.0212; stroke-opacity:1; 
stroke-linecap:round; stroke-linejoin:round;">
</g>
<g style="fill:#FFFFFF; fill-opacity:1.0000; 
stroke:#FFFFFF; stroke-width:0.0000; stroke-opacity:1; 
stroke-linecap:round; stroke-linejoin:round;">
<circle cx="144.7800" cy="81.2800" r="1.1000" /> 
</g>
<g style="fill:#FFFFFF; fill-opacity:1.0000; 
stroke:#FFFFFF; stroke-width:0.0212; stroke-opacity:1; 
stroke-linecap:round; stroke-linejoin:round;">
</g>
<g style="fill:#000000; fill-opacity:1.0000; 
stroke:#000000; stroke-width:0.0212; stroke-opacity:1; 
stroke-linecap:round; stroke-linejoin:round;">
</g> 
</svg>
